<?xml version="1.0" standalone="no"?>
<!DOCTYPE svg PUBLIC "-//W3C//DTD SVG 20010904//EN"
 "http://www.w3.org/TR/2001/REC-SVG-20010904/DTD/svg10.dtd">
<svg version="1.0" xmlns="http://www.w3.org/2000/svg"
 width="348.000000pt" height="348.000000pt" viewBox="0 0 348.000000 348.000000"
 preserveAspectRatio="xMidYMid meet">

<g transform="translate(0.000000,348.000000) scale(0.100000,-0.100000)"
fill="#000000" stroke="none">
<path d="M554 3453 c3 -16 6 -64 8 -108 l3 -79 -160 -2 c-88 0 -215 -2 -282
-3 l-123 -1 0 -25 c0 -21 5 -25 33 -27 17 0 39 -1 47 0 8 0 38 1 65 1 28 0 61
0 75 0 30 0 337 9 362 10 29 2 36 31 26 111 -6 41 -11 86 -12 100 -2 14 -4 31
-4 38 -1 6 -11 12 -23 12 -17 0 -20 -5 -15 -27z"/>
<path d="M1812 3468 c6 -18 25 -20 31 -3 5 10 0 15 -14 15 -12 0 -19 -5 -17
-12z"/>
<path d="M1900 3465 c0 -8 5 -24 12 -35 18 -28 -1 -39 -22 -12 -19 23 -40 29
-40 12 0 -6 6 -13 13 -16 7 -2 14 -14 14 -26 3 -32 17 -40 39 -22 10 8 13 13
7 9 -17 -8 -16 -5 3 33 8 18 13 41 9 52 -7 23 -35 27 -35 5z"/>
<path d="M1953 3413 c6 -65 -3 -108 -17 -84 -5 7 -15 7 -33 0 -14 -5 -103 -12
-197 -15 -94 -3 -195 -6 -223 -8 -29 -2 -53 0 -53 4 0 3 11 17 25 30 32 30 29
39 -20 56 -51 18 -64 18 -39 0 27 -20 15 -27 -48 -29 -44 -2 -53 -5 -53 -20 0
-22 -23 -37 -44 -29 -14 5 -14 2 2 -21 17 -26 17 -27 -9 -33 -14 -4 -30 -17
-34 -30 -9 -23 -40 -34 -40 -14 0 6 -4 10 -9 10 -5 0 -7 -9 -4 -20 4 -15 0
-20 -15 -20 -11 0 -22 -7 -26 -15 -3 -8 -10 -15 -16 -15 -6 0 -2 10 10 22 11
12 21 30 22 40 0 10 1 24 2 31 1 6 7 16 14 20 6 4 12 13 12 19 0 6 -3 9 -6 5
-3 -3 -17 -1 -31 4 -16 6 -39 6 -61 0 -21 -5 -98 -12 -172 -15 -155 -6 -230
-15 -230 -27 0 -9 70 -30 80 -24 4 3 75 8 158 11 112 5 155 4 166 -5 10 -8 16
-9 21 -1 9 15 35 12 35 -4 0 -8 -7 -16 -15 -20 -8 -3 -15 -12 -15 -21 0 -8 -7
-15 -15 -15 -18 0 -20 -17 -3 -22 9 -3 8 -9 -4 -22 -22 -21 -41 -92 -34 -120
6 -22 52 -74 106 -119 17 -15 29 -31 25 -37 -3 -5 0 -8 7 -5 12 4 85 -52 76
-59 -1 -2 -50 -8 -108 -15 -89 -9 -184 -14 -494 -25 -22 -1 -41 -7 -44 -14 -4
-14 -29 -16 -34 -3 -2 6 -101 4 -248 -4 -135 -8 -262 -14 -282 -15 -30 0 -38
-4 -38 -19 0 -13 7 -18 28 -18 15 0 36 -2 47 -3 11 -1 83 1 160 6 77 4 172 8
210 8 39 1 80 7 92 14 30 17 30 17 29 -28 0 -23 -6 -42 -14 -45 -8 -3 -11 -17
-8 -42 8 -70 18 -92 51 -118 37 -28 45 -30 45 -14 0 6 7 17 16 26 8 9 13 21
10 28 -4 10 6 10 49 0 50 -11 56 -11 71 6 20 22 47 24 63 5 9 -10 8 -15 -4
-19 -8 -4 -14 -3 -12 1 2 8 -7 12 -26 12 -8 0 -14 -7 -14 -15 0 -9 6 -13 16
-10 10 3 22 -6 33 -26 17 -28 17 -30 0 -36 -30 -11 -32 -27 -3 -39 21 -9 30
-21 35 -48 4 -20 11 -34 17 -31 5 4 9 1 9 -4 0 -6 7 -11 15 -11 8 0 15 -4 15
-8 0 -5 11 -14 24 -20 22 -10 23 -14 15 -54 -4 -24 -5 -53 -2 -65 3 -14 1 -23
-6 -23 -12 0 -14 9 -11 58 1 17 -3 32 -9 32 -6 0 -11 -13 -11 -29 0 -30 -14
-49 -24 -32 -4 5 0 12 6 14 8 3 6 6 -4 6 -37 2 -11 -50 32 -64 11 -3 20 -11
20 -16 0 -5 7 -9 15 -9 8 0 15 -6 15 -14 0 -19 40 -67 51 -61 5 4 6 0 4 -7 -3
-8 7 -25 21 -38 15 -14 24 -19 19 -11 -5 9 -4 12 3 7 7 -4 12 -14 12 -22 0 -8
7 -14 15 -14 8 0 15 -5 15 -10 0 -6 10 -8 23 -5 12 3 40 -2 62 -11 22 -10 47
-17 57 -15 9 1 19 -3 23 -9 10 -16 25 -1 25 26 0 15 4 23 10 19 6 -4 8 -10 5
-15 -3 -5 3 -11 12 -13 15 -4 15 -6 -5 -12 -15 -5 -19 -11 -13 -19 6 -8 2 -15
-15 -23 -14 -7 -24 -7 -24 -1 0 5 -9 7 -20 3 -14 -5 -18 -3 -14 8 2 7 -2 20
-11 27 -12 10 -18 10 -31 -1 -14 -11 -18 -11 -29 4 -13 18 -35 23 -35 7 0 -12
47 -37 116 -60 30 -11 53 -14 51 -8 -1 5 8 14 21 19 27 10 28 3 5 -24 -10 -11
-12 -17 -5 -13 6 4 12 2 12 -3 0 -6 7 -11 16 -11 8 0 12 -5 9 -11 -11 -17 -57
-32 -107 -34 -40 -2 -52 2 -80 26 -18 16 -38 27 -45 25 -7 -3 -13 -2 -13 3 0
5 -16 12 -35 15 -19 4 -49 20 -67 37 -18 16 -34 25 -36 20 -2 -6 -21 1 -43 16
-41 27 -49 36 -24 27 8 -4 15 -2 15 4 0 10 -60 38 -73 34 -4 -1 -15 4 -23 13
-9 8 -21 15 -27 15 -7 0 -25 19 -42 41 -20 27 -35 39 -47 36 -14 -4 -17 -1
-12 18 4 16 -1 27 -16 38 -15 11 -18 16 -8 20 9 4 7 6 -4 6 -10 1 -18 8 -18
16 0 8 -4 14 -8 13 -5 -2 -19 8 -33 22 -13 14 -21 21 -16 16 4 -6 7 -13 7 -17
0 -10 -56 -20 -145 -25 -97 -6 -128 -12 -120 -23 2 -5 -2 -12 -11 -15 -22 -9
-24 -8 -24 9 0 16 -27 20 -47 7 -6 -4 -11 -16 -10 -27 1 -13 -5 -21 -18 -23
-20 -3 -51 -39 -42 -48 2 -2 16 5 30 17 24 18 27 18 27 4 0 -14 3 -15 14 -5 8
6 12 18 9 26 -4 10 0 12 11 8 11 -4 15 -13 11 -23 -5 -12 -3 -13 6 -4 6 6 18
9 26 6 8 -3 19 0 23 7 6 10 15 10 42 1 19 -6 42 -9 51 -5 10 3 17 2 17 -3 0
-6 10 -15 22 -21 15 -7 18 -11 8 -12 -8 0 0 -7 19 -15 27 -12 32 -19 27 -38
-3 -12 -6 -30 -6 -39 0 -20 -30 -31 -55 -22 -14 6 -16 14 -11 48 4 22 4 37 0
33 -4 -4 -13 -2 -20 4 -10 8 -33 6 -85 -6 -39 -8 -74 -13 -77 -10 -3 3 0 5 6
5 7 0 12 7 12 15 0 21 -9 19 -31 -7 -10 -14 -18 -18 -19 -10 0 7 -5 10 -10 7
-6 -3 -10 -1 -10 4 0 6 -11 11 -24 11 -18 0 -27 -8 -35 -30 -6 -20 -7 -28 0
-24 5 3 15 1 22 -4 7 -5 36 -13 65 -17 29 -4 59 -13 67 -21 7 -8 21 -14 29
-14 9 0 16 -4 16 -10 0 -5 -7 -7 -15 -3 -21 7 -60 -27 -43 -38 6 -4 23 1 36
12 30 23 50 24 79 4 17 -12 31 -13 64 -6 32 7 47 6 63 -4 23 -15 53 -5 42 14
-5 7 -13 8 -25 1 -16 -8 -19 -4 -25 32 -9 53 5 68 42 47 16 -9 29 -26 33 -44
l6 -30 14 30 c10 21 20 29 33 27 11 -3 16 0 12 7 -4 6 -2 11 4 11 6 0 8 10 4
24 -7 28 18 42 36 20 7 -8 18 -14 24 -14 6 0 19 -9 29 -20 16 -19 15 -20 -4
-31 -11 -6 -28 -8 -37 -4 -10 3 -4 -7 13 -25 24 -25 36 -31 60 -27 29 4 103
-16 115 -31 6 -9 37 -29 70 -45 88 -43 119 -69 145 -122 16 -33 31 -53 38 -49
7 3 5 -1 -5 -8 -10 -9 -14 -23 -11 -39 3 -18 0 -28 -12 -32 -9 -4 -14 -3 -11
2 4 5 -2 7 -12 4 -13 -3 -18 -11 -15 -27 3 -14 0 -23 -9 -24 -51 -5 -87 -11
-112 -17 -29 -8 -29 -8 -22 28 4 19 3 38 -2 41 -5 3 -9 0 -9 -7 0 -7 -3 -31
-7 -55 -8 -41 -7 -43 16 -40 12 2 29 7 36 11 8 6 12 2 12 -10 0 -15 2 -16 10
-3 7 11 12 12 21 3 6 -6 18 -9 25 -6 9 3 14 -2 14 -17 0 -11 -4 -18 -10 -15
-5 3 -10 1 -10 -4 0 -6 7 -11 15 -11 8 0 15 -6 15 -14 0 -15 -27 -29 -40 -21
-5 3 -11 -4 -15 -15 -3 -11 -13 -20 -21 -20 -13 0 -14 -2 -1 -14 8 -8 23 -13
34 -10 14 4 23 -2 31 -22 7 -14 15 -24 18 -21 3 3 0 15 -6 27 -6 12 -9 24 -6
27 9 10 38 -26 30 -38 -4 -8 -3 -9 4 -5 8 4 16 -3 22 -19 11 -30 6 -45 -15
-45 -10 0 -14 -9 -13 -25 1 -14 6 -25 11 -25 4 0 5 -5 2 -11 -4 -6 -13 -8 -20
-5 -14 5 -15 -11 -2 -31 11 -18 1 -59 -23 -93 -24 -34 -33 -39 -23 -13 6 15 5
16 -9 3 -13 -12 -13 -19 -2 -46 11 -25 10 -37 -1 -70 -7 -21 -11 -50 -8 -63 4
-16 2 -22 -5 -17 -8 5 -10 1 -5 -10 5 -13 2 -15 -15 -10 -16 5 -23 0 -35 -23
-10 -21 -12 -32 -4 -40 6 -6 8 -14 4 -18 -4 -3 -13 0 -20 8 -6 8 -25 25 -41
39 l-28 25 6 -32 c6 -25 3 -34 -16 -48 -15 -11 -19 -19 -10 -22 6 -3 10 -9 6
-14 -8 -13 10 -11 24 3 7 7 12 8 12 4 0 -5 7 -3 15 4 8 7 22 10 30 6 13 -4 14
-10 5 -26 -7 -13 -7 -20 0 -20 5 0 10 -4 10 -10 0 -5 -6 -10 -14 -10 -8 0 -22
-7 -30 -16 -9 -8 -20 -12 -26 -9 -5 3 -10 1 -10 -4 0 -6 -4 -11 -9 -11 -5 0
-7 9 -4 20 4 15 2 19 -10 14 -9 -3 -18 -12 -21 -20 -3 -9 -10 -12 -16 -9 -5 3
-10 2 -10 -4 0 -12 -32 -2 -42 13 -4 6 -8 1 -8 -11 0 -18 6 -23 24 -23 30 0
42 -16 26 -35 -16 -20 -3 -19 16 0 9 8 23 15 32 14 11 0 12 -2 5 -6 -23 -9
-14 -25 10 -18 17 5 18 4 7 -4 -19 -13 -6 -26 17 -16 10 5 23 7 30 6 7 -1 17
7 23 18 6 12 16 18 25 15 8 -4 15 -1 15 6 0 7 6 6 16 -4 22 -23 26 -20 19 13
-5 24 -2 30 17 36 13 4 30 6 40 6 9 -1 19 3 23 9 3 6 11 8 16 5 5 -4 9 -1 9 5
0 13 80 8 81 -6 1 -13 -73 -84 -88 -84 -7 0 -20 11 -29 25 -9 14 -19 23 -22
21 -3 -3 0 -12 7 -20 9 -11 6 -15 -16 -21 -33 -8 -67 -41 -58 -55 4 -6 4 -24
0 -39 -4 -21 -15 -33 -38 -41 -27 -9 -30 -13 -17 -23 17 -14 23 -30 25 -72 4
-72 3 -70 26 -41 12 15 18 30 15 34 -4 3 -11 0 -16 -8 -5 -8 -12 -11 -16 -7
-4 3 -1 13 6 22 7 9 9 22 5 32 -15 34 -14 43 2 34 36 -20 106 29 96 67 -3 13
-1 22 6 22 6 0 11 -7 11 -16 0 -11 5 -14 16 -10 9 3 18 6 20 6 2 0 4 4 4 10 0
5 -6 7 -14 4 -20 -8 -28 23 -10 41 11 11 20 12 34 5 25 -14 47 -3 54 26 4 13
10 24 15 24 4 0 25 11 46 25 22 15 44 23 55 20 10 -3 21 -1 25 5 4 6 24 9 51
6 55 -7 61 14 9 33 -19 7 -35 16 -35 20 0 20 15 18 52 -6 27 -18 38 -32 35
-44 -6 -21 28 -54 64 -63 15 -3 41 -1 59 5 23 9 34 9 43 0 6 -6 33 -11 59 -11
27 0 48 -5 48 -10 0 -6 8 -20 18 -30 16 -17 42 -99 42 -131 0 -16 -18 -10 -23
9 -4 13 -5 12 -6 -5 0 -12 6 -26 14 -30 9 -5 12 -17 8 -31 -7 -28 -23 -29 -23
-1 0 11 -4 17 -11 14 -7 -5 -5 -15 6 -31 15 -24 15 -24 -19 -22 -19 2 -32 6
-30 10 6 9 -29 28 -51 28 -14 0 -14 -3 0 -30 19 -37 19 -50 0 -50 -8 0 -15 -5
-15 -11 0 -5 -4 -7 -10 -4 -6 3 -7 -1 -4 -9 3 -9 10 -13 15 -10 5 3 9 -2 9
-11 0 -9 -4 -13 -10 -10 -10 6 -14 -7 -11 -32 1 -7 -3 -13 -9 -13 -5 0 -10 -4
-10 -10 0 -5 6 -7 14 -4 17 7 27 -18 15 -37 -8 -11 -13 -9 -31 11 -19 23 -20
23 -14 3 4 -13 2 -24 -5 -29 -8 -5 -10 -3 -5 7 4 8 -1 3 -12 -11 -11 -13 -18
-28 -16 -32 6 -10 -30 -11 -39 -1 -4 3 -2 12 5 20 6 7 8 16 5 19 -3 3 -10 -4
-17 -15 -13 -26 -58 -28 -76 -3 -16 20 -18 54 -5 67 6 6 1 11 -14 11 -16 1
-22 -2 -18 -12 3 -8 -3 -17 -13 -21 -11 -3 -35 -18 -54 -33 -31 -24 -38 -25
-60 -14 -23 12 -26 11 -31 -9 -4 -19 -6 -17 -12 12 -7 33 -8 34 -22 15 -12
-17 -12 -20 0 -30 8 -6 15 -16 15 -23 0 -8 77 -11 274 -11 l274 0 7 51 c5 36
11 49 20 45 8 -3 15 0 17 6 7 21 37 0 31 -21 -4 -15 -1 -21 11 -21 20 0 21
-14 1 -30 -8 -7 -15 -16 -15 -21 0 -5 72 -9 160 -9 l160 0 63 56 c34 31 94 89
132 128 99 102 143 131 220 147 56 11 64 15 59 31 -9 29 60 24 115 -9 25 -15
52 -28 60 -29 8 -2 27 -12 43 -24 16 -12 34 -20 41 -17 6 2 -2 12 -18 22 -17
10 -40 29 -53 42 -13 13 -33 23 -46 23 -43 0 -35 12 32 47 37 19 72 41 77 47
6 7 30 26 55 43 71 49 102 81 96 101 -3 9 5 48 18 87 14 38 23 72 20 76 -2 4
2 10 8 12 9 4 8 6 -2 6 -8 0 -22 -4 -30 -9 -17 -11 -53 16 -43 34 3 7 1 6 -7
-1 -8 -8 -10 -17 -4 -26 5 -7 1 -4 -9 6 -17 19 -17 21 0 39 10 11 13 18 8 16
-6 -2 -21 6 -33 18 -19 18 -21 23 -8 33 8 7 29 14 48 17 32 6 34 4 33 -23 0
-18 5 -28 15 -28 8 0 14 5 13 11 -1 7 6 10 17 7 17 -4 19 -2 13 13 -7 18 -6
18 12 1 15 -16 16 -20 4 -28 -11 -8 -10 -9 6 -7 30 5 28 69 -2 83 -13 5 -23
17 -23 26 0 16 24 112 63 249 24 86 25 180 3 267 -8 32 -17 76 -21 98 -3 22
-10 44 -15 49 -6 6 -10 16 -10 24 0 10 13 6 48 -14 69 -40 212 -141 250 -177
l32 -31 0 1022 0 1022 -154 0 c-168 0 -166 1 -166 -60 0 -55 -12 -91 -29 -88
-9 2 -15 12 -14 23 1 11 4 44 8 73 l6 52 -545 0 -545 0 -3 -81 c-3 -74 -5 -83
-25 -90 -23 -8 -23 -7 -23 81 0 85 -1 90 -21 90 -21 0 -22 -3 -16 -67z m127
47 c0 -5 -4 -10 -10 -10 -5 0 -10 5 -10 10 0 6 5 10 10 10 6 0 10 -4 10 -10z
m45 -50 c3 -5 -1 -10 -9 -10 -9 0 -16 5 -16 10 0 6 4 10 9 10 6 0 13 -4 16
-10z m235 -36 c0 -8 -4 -12 -10 -9 -5 3 -10 13 -10 21 0 8 5 12 10 9 6 -3 10
-13 10 -21z m1103 -31 c-7 -2 -19 -2 -25 0 -7 3 -2 5 12 5 14 0 19 -2 13 -5z
m-2123 -13 c-20 -13 -33 -13 -25 0 3 6 14 10 23 10 15 0 15 -2 2 -10z m740
-57 c19 -3 40 -9 45 -13 6 -5 26 -6 45 -4 31 4 142 7 565 14 88 2 130 -1 133
-9 5 -14 39 -14 47 0 5 6 40 10 94 8 47 -1 95 0 107 3 21 6 119 -10 111 -18
-2 -2 -39 -9 -83 -14 -43 -5 -102 -17 -130 -26 -50 -15 -53 -15 -72 4 -19 19
-30 20 -154 15 -73 -2 -138 -6 -145 -8 -11 -4 -20 -92 -26 -260 -3 -81 -5 -90
-23 -90 -10 0 -18 6 -16 13 9 44 14 340 5 345 -14 9 -91 10 -148 2 -27 -4
-104 -8 -170 -11 -66 -2 -169 -6 -230 -10 -60 -4 -141 -8 -180 -9 -38 -2 -76
-3 -82 -4 -15 -1 -18 -41 -3 -41 11 0 1 -32 -14 -42 -8 -6 -7 -11 2 -16 8 -5
10 -16 5 -28 -6 -17 -5 -18 12 -4 10 8 26 14 37 12 11 -2 18 3 18 12 0 9 5 16
10 16 6 0 10 -9 10 -20 0 -10 7 -23 16 -28 19 -10 11 -32 -12 -32 -21 0 -17
-21 6 -27 22 -6 22 -6 14 -27 -3 -9 -12 -16 -20 -16 -8 0 -14 -2 -14 -4 0 -2
-3 -12 -7 -22 -4 -12 -3 -15 6 -10 16 11 44 -1 35 -15 -4 -8 -9 -7 -15 2 -6
10 -9 8 -9 -8 0 -12 6 -23 13 -26 8 -3 4 -11 -12 -26 -19 -16 -26 -18 -33 -9
-6 10 -10 10 -17 0 -7 -12 -11 -12 -22 1 -12 12 -15 12 -28 0 -7 -8 -25 -13
-40 -13 -14 1 -29 1 -33 0 -32 -9 -53 -3 -56 17 -2 12 -29 50 -62 84 -50 55
-57 66 -49 87 6 15 5 31 -2 43 -11 22 -30 21 -38 -2 -3 -11 -1 -12 10 -2 11 9
14 6 15 -18 1 -16 1 -28 0 -27 -1 2 -14 18 -31 36 -16 18 -23 31 -14 27 22 -8
42 85 23 103 -18 17 -41 15 -41 -3 0 -8 4 -12 8 -9 19 11 17 -16 -2 -30 -17
-11 -20 -22 -17 -50 3 -25 0 -36 -9 -36 -17 0 -17 -17 0 -23 6 -2 4 -3 -5 -2
-11 2 -18 -4 -19 -13 -1 -14 -2 -14 -6 1 -4 15 -7 16 -21 5 -14 -11 -15 -10
-7 7 5 11 11 51 13 89 3 59 1 72 -14 83 -17 13 -17 14 4 36 20 19 34 22 130
25 117 4 289 5 337 3 63 -2 170 10 174 20 2 6 12 8 25 4 11 -4 37 -9 56 -12z
m-751 -178 c1 -58 4 -112 7 -120 8 -21 -8 -19 -34 5 -12 11 -24 20 -26 20 -12
0 -49 37 -62 63 -18 34 -10 67 16 67 10 0 35 16 56 35 20 19 38 35 39 35 2 0
3 -47 4 -105z m-199 24 c0 -11 -27 -12 -34 -1 -2 4 4 9 15 9 10 1 19 -2 19 -8z
m-74 -106 c-10 -10 -19 5 -10 18 6 11 8 11 12 0 2 -7 1 -15 -2 -18z m54 17 c0
-5 -4 -10 -10 -10 -5 0 -10 5 -10 10 0 6 5 10 10 10 6 0 10 -4 10 -10z m971
-53 c-13 -13 -26 -3 -16 12 3 6 11 8 17 5 6 -4 6 -10 -1 -17z m50 -48 c8 -16
8 -20 -1 -14 -7 4 -18 -2 -26 -14 -8 -12 -20 -21 -26 -21 -6 0 -6 6 2 15 20
24 4 29 -20 7 -12 -11 -32 -22 -46 -25 -20 -3 -24 0 -24 20 0 22 3 24 25 19
17 -4 25 -2 25 6 0 9 3 9 10 -2 8 -12 10 -12 15 2 4 10 14 14 27 10 14 -3 19
-1 14 6 -4 7 -3 12 3 12 6 0 15 -10 22 -21z m-737 -29 c-6 -5 -24 21 -24 34 0
6 6 1 14 -10 8 -10 12 -21 10 -24z m576 10 c0 -5 -4 -10 -10 -10 -5 0 -10 5
-10 10 0 6 5 10 10 10 6 0 10 -4 10 -10z m-74 -24 c0 -14 -5 -21 -9 -17 -4 4
-5 15 -1 24 9 24 12 21 10 -7z m57 -36 c-12 -25 -21 -30 -49 -30 -19 0 -34 4
-34 10 0 5 6 7 14 4 8 -3 17 0 21 6 5 7 11 8 19 1 8 -7 12 -3 14 15 1 14 -2
23 -7 19 -12 -7 -24 12 -16 25 4 6 15 4 30 -6 22 -14 22 -17 8 -44z m805 -20
c78 1 132 -3 132 -8 0 -6 -6 -9 -12 -9 -34 4 -158 -15 -158 -24 0 -5 11 -7 24
-3 29 7 42 -9 21 -26 -16 -13 -77 -16 -95 -5 -7 4 -10 15 -7 25 3 11 -1 21 -9
24 -8 3 -14 1 -14 -4 0 -6 -17 -10 -38 -10 -21 0 -48 -7 -60 -16 -12 -8 -22
-10 -22 -5 0 6 -4 11 -10 11 -5 0 -10 -6 -10 -14 0 -16 -27 -29 -42 -20 -7 5
-4 12 7 21 17 11 12 13 -36 13 -30 0 -111 -5 -182 -12 -121 -11 -127 -13 -121
-32 4 -12 12 -24 18 -29 6 -4 0 -6 -14 -5 -16 2 -24 -2 -22 -9 1 -7 -4 -13
-12 -13 -21 0 -28 -30 -26 -118 1 -42 -2 -92 -6 -109 -5 -28 -3 -33 12 -34 14
-1 13 -3 -6 -9 -51 -16 -50 -21 -50 161 0 162 -1 171 -20 176 -22 6 -26 18 -9
28 6 4 8 13 5 20 -3 9 2 11 16 7 15 -4 17 -7 6 -13 -9 -6 -6 -9 11 -9 13 0 29
7 35 15 9 12 53 15 233 19 163 3 230 8 250 18 20 10 35 12 53 5 14 -5 85 -8
158 -7z m315 -5 c3 -14 -82 -26 -104 -15 -10 6 -28 11 -41 12 -13 1 9 4 47 8
86 8 96 8 98 -5z m63 -47 c-3 -35 -9 -94 -12 -133 -9 -103 -18 -140 -34 -140
-8 0 -14 5 -13 10 0 6 4 44 8 85 3 41 10 102 15 134 5 33 7 70 4 83 -5 19 -2
23 16 23 22 0 23 -2 16 -62z m-1686 22 c0 -5 -2 -10 -4 -10 -3 0 -8 5 -11 10
-3 6 -1 10 4 10 6 0 11 -4 11 -10z m380 -39 c6 -13 9 -25 8 -27 -2 -1 -29 -4
-60 -5 -32 -1 -63 -6 -69 -10 -7 -4 -22 4 -35 21 -28 33 -30 39 -7 36 9 -2 30
0 47 4 63 14 104 7 116 -19z m-487 -38 c24 -21 54 -45 66 -53 11 -8 21 -19 21
-25 0 -6 16 -19 35 -29 25 -14 35 -26 35 -43 0 -34 -3 -38 -25 -39 -50 -3 -55
-5 -55 -24 0 -11 5 -20 11 -20 5 0 8 4 4 9 -3 5 0 13 6 17 8 5 9 3 5 -5 -5 -8
0 -15 15 -19 l24 -6 -25 -7 c-19 -5 -14 -7 25 -9 50 -2 50 -2 15 -11 -19 -4
-42 -6 -50 -3 -12 4 -13 3 -2 -7 6 -7 12 -21 12 -32 0 -11 5 -17 13 -14 6 2
11 14 10 26 -3 25 12 28 21 5 4 -9 1 -23 -6 -32 -11 -13 -10 -14 8 -4 17 9 24
9 33 -2 6 -7 7 -17 3 -21 -4 -5 1 -5 11 -2 9 4 17 2 17 -3 0 -6 7 -10 15 -10
8 0 15 -4 15 -10 0 -5 7 -10 15 -10 8 0 15 5 15 10 0 6 11 15 24 20 18 7 23
14 19 29 -3 12 -9 21 -13 21 -13 0 -33 54 -21 58 23 8 10 40 -21 56 -26 12
-28 16 -12 16 11 0 26 -6 33 -12 7 -7 3 4 -10 24 -13 20 -26 35 -28 33 -2 -3
2 -11 9 -20 7 -8 8 -15 2 -15 -17 0 -33 27 -26 44 8 20 -9 21 -26 1 -11 -13
-10 -18 5 -29 17 -12 17 -13 -3 -18 -20 -6 -52 16 -35 24 17 7 53 68 41 68 -8
0 -7 5 4 16 18 18 42 10 34 -12 -6 -16 10 -29 19 -15 3 6 12 8 20 4 18 -6 20
-44 3 -61 -9 -9 -9 -12 0 -12 7 0 33 -20 58 -45 24 -25 42 -45 38 -45 -3 0 1
-12 11 -26 12 -19 15 -36 10 -65 -5 -26 -3 -45 6 -55 10 -12 10 -17 0 -23 -6
-4 -11 -14 -9 -22 2 -9 -6 -15 -22 -16 -14 0 -31 -1 -37 -2 -7 -1 -13 -6 -13
-12 0 -6 6 -9 14 -6 11 4 13 -1 10 -19 -3 -18 -1 -23 7 -18 8 4 9 3 5 -5 -8
-13 -36 -11 -51 4 -5 6 -9 9 -8 7 5 -10 -51 -51 -61 -45 -19 12 -75 9 -81 -4
-2 -7 -15 -13 -27 -13 -19 0 -20 -2 -8 -10 13 -8 12 -10 -2 -10 -11 0 -18 8
-18 19 0 19 -75 58 -123 65 -39 6 -66 18 -71 32 -3 8 -1 14 5 14 6 0 7 5 4 11
-4 6 -13 8 -20 5 -8 -3 -15 0 -17 5 -2 7 -13 7 -32 0 -15 -6 -32 -9 -37 -5 -5
3 -9 3 -9 -1 0 -7 52 -29 63 -27 4 1 7 -2 7 -8 0 -5 -7 -10 -15 -10 -8 0 -15
3 -15 8 0 4 -10 12 -22 17 -11 6 -25 20 -29 33 -7 18 -5 22 11 22 11 0 20 5
20 12 0 6 -3 8 -6 5 -4 -3 -15 -2 -25 4 -13 7 -19 6 -19 -1 0 -7 -6 -7 -21 0
-12 7 -18 18 -15 26 3 8 2 13 -3 9 -14 -8 -41 5 -41 20 0 7 -7 16 -16 19 -9 4
-14 13 -10 21 4 10 -1 15 -15 15 -16 0 -19 -4 -15 -16 5 -13 4 -14 -7 -6 -8 7
-18 8 -22 4 -5 -4 -5 -2 -2 4 3 6 -5 17 -20 25 -14 8 -32 29 -40 47 -12 29
-23 37 -46 33 -14 -2 -35 25 -39 49 -1 13 -12 28 -22 34 -42 24 -96 71 -96 84
0 4 10 8 23 9 12 1 72 6 132 12 61 6 160 14 220 17 61 3 112 8 114 10 2 2 26
4 52 4 41 0 54 -6 92 -37z m1047 12 c-14 -16 -48 -26 -55 -15 -7 11 46 40 58
33 4 -3 3 -11 -3 -18z m-840 -37 c0 -13 -23 -5 -28 10 -2 7 2 10 12 6 9 -3 16
-11 16 -16z m425 -18 c-5 -26 -14 -40 -26 -40 -13 0 -11 39 4 54 16 18 27 11
22 -14z m-255 10 c0 -5 -4 -10 -10 -10 -5 0 -10 5 -10 10 0 6 5 10 10 10 6 0
10 -4 10 -10z m30 -35 c0 -5 -5 -3 -10 5 -5 8 -10 20 -10 25 0 6 5 3 10 -5 5
-8 10 -19 10 -25z m-255 5 c3 -5 -1 -10 -9 -10 -8 0 -18 5 -21 10 -3 6 1 10 9
10 8 0 18 -4 21 -10z m378 -57 c-22 -30 -37 -33 -42 -8 -2 14 2 17 19 12 17
-4 20 -3 12 5 -8 8 -9 15 -1 25 7 7 8 13 3 13 -5 0 -2 5 6 10 23 15 26 -28 3
-57z m-1228 27 c9 -18 11 -30 5 -30 -19 0 -37 24 -32 42 6 24 9 23 27 -12z
m1136 -17 c13 -16 12 -17 -3 -4 -10 7 -18 15 -18 17 0 8 8 3 21 -13z m-44 -45
c-3 -8 -6 -5 -6 6 -1 11 2 17 5 13 3 -3 4 -12 1 -19z m1153 -18 c0 -5 13 -7
30 -3 29 5 30 4 22 -18 -5 -13 -16 -24 -23 -24 -22 0 -28 -28 -11 -47 14 -17
13 -18 -7 -18 -14 0 -20 4 -15 12 4 6 3 8 -4 5 -5 -4 -8 -15 -6 -25 3 -11 -4
-21 -21 -29 -23 -10 -25 -10 -20 8 4 11 2 19 -4 19 -6 0 -11 -4 -11 -8 0 -5
-25 -19 -55 -31 -47 -20 -59 -21 -90 -11 -19 6 -33 16 -30 21 4 5 1 9 -5 9 -7
0 -10 6 -7 13 2 6 11 11 19 9 9 -1 18 7 22 21 5 22 56 53 156 95 32 14 60 15
60 2z m-1337 -23 c4 3 7 1 7 -5 0 -20 -19 -13 -30 11 -10 20 -10 20 3 5 8 -10
17 -15 20 -11z m1437 -36 c-1 -16 -19 -33 -29 -26 -9 5 -9 10 -1 20 6 7 8 21
4 31 -5 18 -5 18 10 0 9 -11 16 -22 16 -25z m-1420 4 c5 3 10 -2 10 -14 0 -10
3 -27 7 -37 4 -12 3 -15 -6 -10 -8 6 -11 2 -9 -10 2 -11 -4 -20 -16 -22 -12
-3 -16 0 -11 7 4 7 2 18 -5 26 -12 15 3 31 20 20 6 -3 10 1 10 9 0 10 -6 13
-15 10 -8 -4 -15 -1 -15 6 0 7 -7 10 -15 6 -8 -3 -15 -1 -15 4 0 6 -8 10 -17
11 -15 0 -15 2 2 8 13 5 28 3 42 -6 12 -8 27 -12 33 -8z m-710 -5 c0 -5 -4
-10 -10 -10 -5 0 -10 5 -10 10 0 6 5 10 10 10 6 0 10 -4 10 -10z m990 -20 c0
-5 -4 -10 -10 -10 -5 0 -10 5 -10 10 0 6 5 10 10 10 6 0 10 -4 10 -10z m782
-28 c-19 -15 -21 -21 -12 -52 13 -44 13 -43 -5 -36 -8 3 -15 2 -15 -3 0 -14
-72 -21 -87 -9 -11 9 -12 13 -1 20 8 5 2 7 -17 4 -16 -3 -84 -8 -150 -11 -66
-4 -123 -9 -128 -12 -16 -10 -349 -38 -354 -30 -10 17 15 29 76 36 43 5 65 13
75 26 12 17 16 17 30 6 13 -11 39 -12 119 -6 155 11 251 21 305 30 20 4 39 1
48 -6 11 -9 19 -8 34 6 29 26 94 64 100 59 2 -3 -5 -13 -18 -22z m494 18 c20
0 17 -17 -3 -22 -25 -7 -43 1 -43 19 0 10 6 13 16 9 9 -3 22 -6 30 -6z m-1016
-20 c10 0 22 -4 25 -10 4 -6 -6 -7 -27 -3 -40 7 -42 8 -32 24 6 10 9 10 12 1
2 -7 12 -12 22 -12z m864 -12 c-3 -4 -17 -8 -32 -7 -23 0 -24 2 -7 8 25 10 45
10 39 -1z m276 4 c0 -12 -49 -37 -56 -29 -4 3 -4 13 -1 22 7 15 57 22 57 7z
m-76 -27 c-4 -17 -2 -25 6 -25 10 0 10 -3 1 -14 -10 -11 -8 -17 6 -25 10 -6
14 -10 8 -11 -19 0 -38 18 -31 29 4 6 0 11 -9 11 -11 0 -15 5 -11 15 3 8 1 15
-4 15 -4 0 -11 -13 -15 -30 -4 -16 -11 -30 -16 -30 -6 0 -7 -4 -4 -10 3 -5 -3
-10 -14 -10 -10 0 -22 -6 -24 -12 -4 -10 -8 -10 -15 1 -9 12 -13 12 -26 2 -9
-8 -16 -11 -16 -7 0 4 -11 -1 -25 -10 -14 -9 -25 -12 -25 -6 0 5 -8 9 -17 8
-12 -1 -19 7 -21 26 -4 30 17 46 66 51 15 2 39 11 52 20 13 9 25 15 27 13 6
-6 -9 -36 -19 -36 -5 0 -6 -4 -3 -10 3 -5 20 4 36 21 18 18 41 32 55 32 13 0
24 3 24 8 0 5 5 9 10 9 6 0 8 -11 4 -25z m-1531 -5 c3 -11 2 -20 -3 -20 -4 0
-10 9 -13 20 -3 11 -2 20 3 20 4 0 10 -9 13 -20z m1217 -39 c0 -3 -11 -14 -25
-24 -17 -12 -26 -14 -31 -5 -4 6 0 16 9 23 17 12 47 16 47 6z m-345 -31 c20
-22 19 -25 -11 -34 -18 -5 -21 -2 -21 24 0 35 7 37 32 10z m-1378 -22 c15 -19
23 -58 12 -58 -5 0 -9 5 -9 10 0 6 -5 10 -11 10 -11 0 -39 25 -39 35 0 3 10 3
23 -1 21 -6 21 -6 -3 15 -20 18 -21 20 -4 12 11 -5 25 -16 31 -23z m1757 1
c-8 -14 -21 -11 -21 5 0 8 6 12 14 9 7 -3 10 -9 7 -14z m-668 -13 c-21 -12
-138 -97 -146 -106 -17 -17 -40 -31 -40 -23 0 21 188 159 200 146 3 -3 -3 -10
-14 -17z m564 14 c0 -5 -7 -10 -15 -10 -8 0 -15 5 -15 10 0 6 7 10 15 10 8 0
15 -4 15 -10z m70 -4 c0 -3 -4 -8 -10 -11 -5 -3 -10 -1 -10 4 0 6 5 11 10 11
6 0 10 -2 10 -4z m-412 -69 c-8 -15 -12 -17 -18 -6 -5 7 -4 22 2 32 8 15 12
17 18 6 5 -7 4 -22 -2 -32z m-1423 15 c-3 -3 -11 0 -18 7 -9 10 -8 11 6 5 10
-3 15 -9 12 -12z m130 -82 c2 -50 2 -50 -17 -30 -14 15 -16 25 -9 38 6 11 6
24 0 33 -5 7 -9 21 -9 29 0 12 3 11 17 -2 10 -11 17 -36 18 -68z m-136 39 c-9
-17 -13 -19 -19 -8 -11 16 -4 29 16 29 12 0 13 -4 3 -21z m1198 -10 c-3 -13
-1 -19 6 -16 7 2 11 11 9 21 -4 22 10 20 36 -4 12 -11 26 -20 31 -20 5 0 11
-8 13 -17 4 -20 -58 -56 -77 -46 -5 4 -7 3 -3 -2 4 -4 0 -14 -10 -22 -9 -8
-11 -12 -4 -8 6 3 12 0 13 -7 0 -9 2 -10 5 -1 3 7 12 9 20 6 8 -3 14 0 14 6 0
6 6 8 13 5 18 -7 57 41 57 72 0 14 4 23 9 20 5 -4 11 -1 13 5 2 6 16 13 31 14
26 3 26 3 13 -28 -7 -19 -21 -33 -33 -35 -21 -3 -41 -32 -23 -32 6 0 10 4 10
9 0 5 8 7 19 4 16 -4 17 -8 8 -34 -7 -17 -17 -27 -24 -25 -7 3 -13 -1 -13 -8
0 -12 -40 -46 -55 -46 -3 0 -10 11 -15 25 -6 16 -14 23 -25 19 -8 -3 -15 -10
-15 -15 0 -5 -7 -9 -16 -9 -10 0 -14 6 -10 15 3 9 0 15 -10 15 -9 0 -12 5 -8
12 5 8 0 9 -15 5 -19 -5 -21 -3 -9 11 7 9 18 21 23 25 6 5 -3 6 -19 2 -20 -4
-34 -1 -47 11 -35 32 -18 60 33 56 19 -2 28 3 33 18 8 26 29 26 22 -1z m-832
-11 c-40 -14 -40 -15 -24 -34 13 -16 12 -16 -8 -5 -38 20 -13 47 47 49 8 0 2
-4 -15 -10z m12 -30 c-3 -8 -6 -5 -6 6 -1 11 2 17 5 13 3 -3 4 -12 1 -19z m43
3 c0 -5 -7 -11 -15 -15 -15 -5 -20 5 -8 17 9 10 23 9 23 -2z m-790 -7 c0 -3
-5 -14 -10 -24 -8 -16 -8 -18 5 -14 10 4 19 -4 29 -27 16 -38 11 -56 -10 -38
-12 9 -20 9 -40 -1 -39 -22 -52 0 -25 45 11 20 21 43 21 51 0 8 7 14 15 14 8
0 15 -3 15 -6z m1449 -23 c6 -10 7 -21 4 -25 -3 -3 0 -6 8 -6 8 0 20 -14 28
-32 12 -27 12 -32 -2 -43 -9 -7 -14 -15 -10 -18 5 -6 -14 -9 -42 -7 -12 1 -32
-26 -32 -43 0 -21 10 -22 26 -3 7 8 21 12 33 8 14 -3 19 -1 14 6 -5 9 0 9 20
2 23 -9 25 -9 15 4 -15 18 -6 23 41 22 21 -1 40 4 42 11 5 13 43 6 52 -9 4 -6
-1 -8 -12 -4 -25 7 -49 -8 -39 -24 5 -9 4 -11 -3 -6 -7 4 -17 4 -22 1 -16 -10
6 -42 32 -48 23 -6 22 -6 -2 13 -27 21 -21 27 10 10 13 -7 21 -7 25 0 3 5 1
10 -4 10 -19 0 -12 17 9 23 13 3 18 1 14 -5 -5 -7 8 -9 40 -6 25 3 49 2 52 -3
3 -5 -7 -9 -23 -10 -15 -1 -39 -4 -52 -8 -23 -6 -23 -7 -7 -24 10 -9 15 -17
11 -17 -4 0 3 -12 14 -26 25 -31 27 -48 6 -40 -17 6 -41 -29 -26 -38 5 -4 4
-17 -2 -31 -9 -18 -23 -27 -50 -31 -34 -6 -63 -24 -38 -24 6 0 11 -4 11 -8 0
-5 -13 -7 -30 -4 -16 2 -27 8 -25 13 3 4 -17 6 -45 4 -34 -2 -50 0 -50 8 0 7
-7 4 -14 -6 -9 -12 -16 -14 -21 -8 -3 6 -2 11 3 11 5 0 9 6 9 14 0 8 -9 13
-21 12 -13 -2 -29 7 -39 20 -16 21 -16 22 3 17 11 -3 20 -9 20 -12 0 -9 37 -7
46 2 4 4 2 7 -4 7 -21 0 -13 42 9 47 12 3 18 11 15 19 -3 9 4 16 20 20 18 5
22 10 15 17 -8 8 -20 2 -44 -21 -18 -18 -38 -32 -45 -32 -12 0 -53 -20 -62
-31 -7 -8 -57 -6 -65 3 -4 4 -15 2 -25 -5 -17 -10 -17 -13 -4 -39 13 -25 13
-28 -1 -28 -10 0 -15 7 -13 18 2 9 -3 16 -9 15 -7 -2 -13 3 -13 11 0 13 -27
31 -42 28 -4 -1 -5 5 -2 13 4 8 10 15 14 15 4 0 10 9 13 20 7 28 6 35 -4 33
-15 -5 -10 14 5 20 15 6 27 75 14 83 -5 3 -6 14 -3 25 5 14 3 17 -10 13 -9 -4
-13 -13 -11 -23 3 -9 1 -23 -4 -31 -6 -9 -10 -11 -10 -3 0 7 -7 10 -15 7 -10
-4 -15 0 -15 15 0 12 -10 31 -21 42 -29 29 -8 42 37 23 43 -18 80 -18 87 0 3
7 20 16 39 19 18 3 44 8 58 12 19 5 22 4 10 -4 -9 -7 -10 -11 -3 -11 16 0 26
17 13 25 -17 11 -11 23 9 18 13 -3 23 2 30 16 14 26 47 27 60 2z m-1693 -17
c1 -9 0 -13 -4 -10 -3 4 -7 14 -8 22 -1 9 0 13 4 10 3 -4 7 -14 8 -22z m891 7
c-2 -3 4 -14 14 -23 16 -15 18 -15 24 0 3 9 1 18 -4 20 -6 2 -11 8 -11 13 0 4
7 6 15 3 8 -4 15 -12 15 -19 0 -7 7 -18 15 -25 12 -10 15 -9 16 4 1 9 2 21 3
28 1 15 54 17 60 2 9 -24 -6 -49 -40 -65 -28 -13 -34 -14 -34 -3 0 8 -4 14
-10 14 -5 0 -10 -7 -10 -15 0 -8 -3 -15 -7 -16 -5 0 -19 -2 -33 -3 -32 -4 -50
20 -40 53 4 14 5 32 3 39 -3 7 1 10 11 6 9 -3 14 -9 13 -13z m598 2 c-4 -10
-8 -22 -9 -28 -7 -27 -19 -44 -27 -39 -5 3 -9 10 -9 15 0 6 5 7 12 3 8 -5 9
-2 4 11 -4 11 0 24 11 36 23 23 27 23 18 2z m530 7 c3 -5 1 -10 -4 -10 -6 0
-11 5 -11 10 0 6 2 10 4 10 3 0 8 -4 11 -10z m151 -11 c18 -20 18 -20 -11 -15
-17 3 -32 1 -37 -7 -6 -9 -8 -8 -8 4 0 15 18 39 30 39 4 0 15 -9 26 -21z
m-1518 -9 c1 -8 -6 -20 -16 -26 -14 -9 -23 -8 -41 7 -18 15 -19 19 -7 19 9 0
16 4 16 9 0 15 45 7 48 -9z m547 10 c3 -5 -1 -10 -9 -10 -9 0 -16 5 -16 10 0
6 4 10 9 10 6 0 13 -4 16 -10z m-383 -30 c9 -17 14 -30 10 -30 -10 0 -39 20
-29 20 4 0 3 9 -3 20 -17 32 3 23 22 -10z m-869 13 c-7 -2 -21 -2 -30 0 -10 3
-4 5 12 5 17 0 24 -2 18 -5z m1226 -14 l33 -20 -43 -37 c-55 -48 -79 -58 -79
-33 0 10 7 22 17 25 14 6 14 8 -3 21 -16 12 -17 16 -4 24 8 5 19 7 25 4 5 -3
4 0 -2 8 -32 34 4 40 56 8z m108 15 c-3 -3 -12 -4 -19 -1 -8 3 -5 6 6 6 11 1
17 -2 13 -5z m955 -32 c13 -3 -3 -32 -17 -32 -17 0 -28 -17 -20 -30 3 -5 20 3
36 18 34 30 80 47 76 29 -1 -8 21 -14 62 -17 43 -3 66 -10 69 -19 4 -11 -3
-12 -30 -7 -29 5 -39 2 -62 -20 -14 -15 -29 -24 -33 -21 -11 11 -32 -14 -26
-30 5 -12 1 -14 -18 -7 -13 4 -32 7 -41 6 -10 0 -18 2 -18 6 0 4 -11 8 -25 8
-15 1 -22 -2 -18 -9 3 -6 1 -7 -5 -3 -7 4 -12 14 -12 22 0 8 -5 12 -11 9 -6
-4 -8 -14 -5 -22 3 -8 1 -11 -4 -8 -19 12 -10 54 15 71 29 19 34 36 8 27 -27
-9 -75 -61 -68 -73 7 -11 -9 -13 -42 -4 -25 7 -29 20 -13 44 9 13 12 13 24 -2
15 -20 26 -23 26 -9 0 16 54 69 75 73 18 4 59 3 77 0z m158 -12 c0 -5 -7 -10
-16 -10 -8 0 -12 5 -9 10 3 6 10 10 16 10 5 0 9 -4 9 -10z m440 0 c0 -5 -2
-10 -4 -10 -3 0 -8 5 -11 10 -3 6 -1 10 4 10 6 0 11 -4 11 -10z m-1815 -50
c-14 -15 -13 -18 5 -35 20 -19 28 -41 10 -30 -14 9 -12 -8 3 -24 10 -11 9 -12
-1 -7 -7 4 -18 3 -25 -2 -23 -19 -53 18 -52 65 0 47 -7 53 -27 24 -10 -14 -18
-17 -28 -11 -16 10 -15 12 23 28 20 8 34 9 47 2 24 -13 40 -13 20 0 -13 9 -13
11 0 19 9 7 19 6 27 -1 11 -9 11 -14 -2 -28z m250 19 c-8 -12 -35 -12 -35 0 0
11 22 20 33 14 4 -2 5 -9 2 -14z m1346 -9 c7 -20 18 -30 31 -30 11 0 16 -4 12
-11 -4 -7 -21 -9 -45 -5 -22 4 -40 2 -44 -4 -5 -8 -11 -8 -19 -1 -7 6 -15 8
-18 5 -3 -3 -9 -1 -13 5 -3 6 1 11 9 11 8 0 17 9 21 20 5 16 10 17 31 10 22
-9 24 -8 14 10 -8 14 -8 20 0 20 6 0 16 -13 21 -30z m226 3 c-6 -13 -19 -23
-29 -23 -27 0 -60 -19 -53 -30 4 -6 13 -5 24 2 11 6 26 8 37 3 16 -6 13 -9
-16 -17 -32 -9 -37 -8 -63 24 -17 21 -23 34 -16 37 7 2 18 -4 26 -15 7 -10 13
-12 13 -5 0 7 5 9 11 5 8 -5 10 0 6 17 -6 22 -3 24 32 24 36 0 38 -1 28 -22z
m-1626 3 c5 3 9 1 9 -4 0 -5 -9 -12 -19 -15 -13 -3 -18 0 -16 12 5 26 6 27 12
13 2 -6 9 -10 14 -6z m1289 4 c0 -5 -4 -10 -10 -10 -5 0 -10 5 -10 10 0 6 5
10 10 10 6 0 10 -4 10 -10z m-1636 -25 c-7 -17 -20 -20 -29 -6 -3 5 3 12 12
14 10 3 19 5 20 6 1 0 0 -6 -3 -14z m2044 -10 c-4 -20 -1 -24 15 -22 11 1 22
-4 25 -12 3 -9 0 -11 -9 -6 -14 9 -52 17 -81 16 -12 0 -18 8 -18 21 0 14 5 18
15 14 8 -3 23 -9 32 -13 12 -5 15 -2 10 10 -4 10 -2 17 4 17 7 0 9 -11 7 -25z
m-1740 -4 c3 -8 -1 -12 -9 -9 -7 2 -15 10 -17 17 -3 8 1 12 9 9 7 -2 15 -10
17 -17z m1226 4 c-4 -8 -10 -15 -16 -15 -5 0 -6 -4 -3 -10 3 -5 0 -7 -9 -4
-18 7 -10 31 12 37 10 3 18 5 19 6 1 0 0 -6 -3 -14z m-1729 -5 c3 -5 2 -10 -4
-10 -5 0 -13 5 -16 10 -3 6 -2 10 4 10 5 0 13 -4 16 -10z m135 -5 c-7 -9 -15
-13 -17 -11 -7 7 7 26 19 26 6 0 6 -6 -2 -15z m557 -6 c2 -16 -1 -19 -9 -11
-5 5 -7 15 -4 21 10 15 12 14 13 -10z m-90 5 c-3 -3 -12 -4 -19 -1 -8 3 -5 6
6 6 11 1 17 -2 13 -5z m-1367 -24 c0 -5 -2 -10 -4 -10 -3 0 -8 5 -11 10 -3 6
-1 10 4 10 6 0 11 -4 11 -10z m965 -11 c17 -17 -9 -31 -38 -20 -38 15 -37 46
1 36 15 -3 31 -11 37 -16z m1205 -14 c13 -14 19 -25 13 -25 -6 0 -13 4 -15 9
-1 5 -12 3 -23 -6 -18 -14 -18 -15 -1 -9 14 5 17 2 12 -9 -3 -9 -2 -13 4 -10
6 3 10 -1 10 -10 0 -9 -4 -14 -9 -11 -5 4 -7 -2 -4 -12 2 -10 -3 -24 -11 -31
-13 -11 -16 -11 -16 2 0 12 -4 13 -24 4 -13 -7 -22 -15 -20 -19 3 -5 1 -8 -4
-8 -11 0 -22 24 -22 45 0 7 10 15 22 18 17 5 19 9 9 21 -10 11 -9 16 2 23 8 4
19 18 26 31 15 28 22 28 51 -3z m-955 5 c-3 -5 1 -10 9 -10 8 0 20 -9 26 -20
6 -11 18 -20 28 -21 9 0 12 -3 5 -5 -7 -3 -9 -13 -7 -22 4 -11 -1 -8 -14 7
-10 13 -24 21 -30 17 -6 -4 -8 2 -4 16 3 14 2 19 -6 14 -7 -4 -12 -15 -12 -24
0 -13 -2 -13 -14 4 -13 17 -12 21 1 37 18 19 28 23 18 7z m-718 -27 c-3 -3
-11 -2 -17 2 -9 6 -9 10 1 16 14 8 27 -7 16 -18z m1713 17 c0 -5 -2 -10 -4
-10 -3 0 -8 5 -11 10 -3 6 -1 10 4 10 6 0 11 -4 11 -10z m660 0 c0 -5 -4 -10
-10 -10 -5 0 -10 5 -10 10 0 6 5 10 10 10 6 0 10 -4 10 -10z m-426 -25 c-3 -7
-14 -11 -25 -8 -27 7 -24 18 5 19 16 1 23 -3 20 -11z m-374 -9 c0 -3 -4 -8
-10 -11 -5 -3 -10 -1 -10 4 0 6 5 11 10 11 6 0 10 -2 10 -4z m-1145 -26 c3 -5
1 -10 -4 -10 -6 0 -11 5 -11 10 0 6 2 10 4 10 3 0 8 -4 11 -10z m1635 0 c0 -5
-6 -10 -14 -10 -8 0 -16 -6 -19 -12 -2 -7 -7 -10 -11 -7 -8 7 21 39 35 39 5 0
9 -4 9 -10z m171 -43 c-7 -59 -25 -66 -29 -12 -3 28 1 43 14 52 10 7 18 12 19
10 1 -1 -1 -24 -4 -50z m-1486 33 c8 -13 -5 -13 -25 0 -13 8 -13 10 2 10 9 0
20 -4 23 -10z m119 -20 c4 -21 11 -30 25 -30 11 0 23 -5 26 -10 4 -6 10 -8 15
-5 5 3 12 0 16 -6 4 -8 3 -9 -4 -5 -7 4 -17 -3 -24 -18 -6 -14 -14 -26 -17
-26 -17 0 -52 34 -47 46 3 8 -1 14 -9 14 -8 0 -15 9 -15 20 0 11 5 20 11 20 6
0 9 7 5 15 -3 8 -2 15 3 15 5 0 11 -13 15 -30z m-269 10 c-3 -5 -13 -10 -21
-10 -8 0 -14 5 -14 10 0 6 9 10 21 10 11 0 17 -4 14 -10z m40 0 c3 -6 -1 -7
-9 -4 -18 7 -21 14 -7 14 6 0 13 -4 16 -10z m1250 -1 c12 -19 -5 -23 -22 -6
-16 16 -16 17 -1 17 9 0 20 -5 23 -11z m-1198 -13 c0 -8 -6 -12 -14 -9 -7 3
-13 9 -13 14 0 5 6 9 13 9 8 0 14 -6 14 -14z m-19 -61 c45 -48 53 -62 23 -44
-25 17 -53 5 -44 -18 7 -17 8 -17 11 0 2 9 8 17 13 17 12 0 11 -7 -1 -30 -12
-23 -45 -19 -71 9 -15 16 -16 20 -4 25 8 3 15 9 15 14 0 13 -47 62 -60 62 -6
0 -8 5 -4 11 14 23 78 -1 122 -46z m1487 -15 c48 -18 72 -21 130 -16 65 6 68
5 40 -7 -17 -8 -46 -12 -67 -9 -22 3 -38 0 -38 -6 0 -5 -9 -12 -20 -15 -11 -3
-23 -13 -27 -24 -3 -10 -14 -28 -24 -41 -14 -18 -18 -42 -18 -100 1 -132 0
-140 -16 -146 -9 -3 -15 -1 -14 7 4 34 -3 68 -16 79 -41 34 -55 52 -44 59 8 5
8 12 0 28 -7 11 -11 36 -9 54 1 18 -2 38 -6 45 -8 13 15 42 34 42 7 0 9 15 6
41 -5 46 -12 46 89 9z m310 0 c-27 -12 -35 -12 -35 0 0 6 12 10 28 9 24 0 25
-1 7 -9z m-825 -10 c0 -5 -2 -10 -4 -10 -3 0 -8 5 -11 10 -3 6 -1 10 4 10 6 0
11 -4 11 -10z m-810 -9 c0 -6 -4 -13 -10 -16 -5 -3 -10 -15 -10 -27 0 -16 -4
-19 -24 -14 -13 3 -26 3 -29 -2 -2 -4 -2 -1 -1 6 2 6 -1 12 -6 12 -6 0 -10 5
-10 11 0 6 11 8 29 4 23 -5 29 -2 34 14 5 21 27 30 27 12z m738 -9 c30 -6 23
-26 -12 -30 -17 -2 -26 0 -22 6 3 6 -2 18 -11 28 -17 17 -17 18 2 10 11 -5 30
-11 43 -14z m-1013 -2 c3 -5 1 -10 -4 -10 -6 0 -11 5 -11 10 0 6 2 10 4 10 3
0 8 -4 11 -10z m379 -5 c3 -8 1 -15 -4 -15 -6 0 -10 7 -10 15 0 8 2 15 4 15 2
0 6 -7 10 -15z m132 -10 c4 -8 15 -15 25 -15 12 0 19 -7 19 -19 0 -17 -4 -18
-42 -9 -51 11 -49 9 -41 36 6 25 31 29 39 7z m157 -26 c3 -10 4 -19 2 -19 -7
0 -35 32 -35 40 0 17 28 -1 33 -21z m97 10 c0 -6 7 -9 15 -5 9 3 15 0 15 -9 0
-19 -17 -19 -36 -1 -16 17 -18 26 -4 26 6 0 10 -5 10 -11z m946 -4 c-3 -9 1
-18 9 -21 22 -9 18 -23 -5 -17 -13 4 -19 13 -18 29 1 13 6 24 11 24 5 0 6 -7
3 -15z m-1054 -36 c0 -5 1 -15 2 -21 1 -7 6 -16 11 -20 6 -4 2 -8 -7 -8 -10 0
-18 -5 -18 -11 0 -5 -6 -7 -12 -3 -10 6 -10 4 0 -7 15 -17 16 -33 0 -23 -7 5
-9 2 -6 -8 6 -14 -7 -17 -43 -9 -6 1 -18 30 -23 53 -2 13 -16 21 -16 9 0 -7
-5 -9 -12 -5 -8 5 -9 2 -5 -9 3 -10 2 -17 -3 -17 -6 0 -10 9 -10 20 0 11 7 20
15 20 8 0 15 5 15 10 0 6 5 10 10 10 6 0 10 -5 10 -11 0 -6 7 -17 15 -26 8 -8
13 -19 10 -24 -4 -5 1 -6 9 -3 23 9 19 50 -6 74 -22 21 -22 22 -4 35 16 12 22
12 42 -2 13 -8 25 -19 26 -24z m-333 -44 c0 -5 -4 -2 -10 8 -5 9 -15 17 -22
17 -7 0 -6 -4 3 -10 8 -5 11 -12 8 -16 -4 -3 -14 1 -23 10 -9 9 -12 16 -6 16
6 0 11 8 11 18 0 14 4 12 20 -8 11 -14 20 -29 19 -35z m474 21 c21 -16 21 -23
2 -43 -20 -19 -45 -1 -45 33 0 27 16 30 43 10z m1268 -23 c-10 -17 -10 -16
-11 3 0 23 13 41 18 25 2 -6 -1 -18 -7 -28z m-1421 -87 c0 -3 -4 -8 -10 -11
-5 -3 -10 -1 -10 4 0 6 5 11 10 11 6 0 10 -2 10 -4z m-865 -55 c-1 -8 -8 -17
-15 -19 -7 -3 -10 0 -7 6 4 5 -3 12 -15 15 -18 5 -19 9 -9 21 16 18 50 2 46
-23z m532 2 c-5 -34 -27 -43 -27 -10 0 25 7 37 22 37 5 0 7 -12 5 -27z m356 7
c-6 -22 4 -25 27 -10 13 9 13 10 0 10 -13 0 -13 1 0 10 22 14 30 12 30 -6 0
-11 5 -14 17 -10 10 4 14 4 11 0 -4 -3 -1 -19 7 -35 9 -16 14 -34 13 -40 -2
-6 3 -14 10 -16 8 -3 10 1 6 11 -3 9 -1 16 6 16 6 0 8 5 5 10 -3 6 -2 10 3 10
5 0 12 9 15 20 4 14 14 20 36 20 25 0 33 -6 47 -35 9 -19 14 -44 11 -55 -7
-26 5 -25 34 1 17 14 19 19 7 15 -10 -3 -20 0 -24 6 -4 7 -3 8 4 4 7 -4 12 -2
12 3 0 6 -6 11 -14 11 -7 0 -16 9 -19 19 -4 17 -2 18 18 11 16 -6 25 -5 29 3
3 7 3 0 0 -15 -5 -23 -1 -31 25 -45 17 -10 31 -21 31 -25 0 -12 -14 -10 -27 3
-9 9 -11 7 -7 -8 3 -11 17 -26 31 -32 21 -10 23 -14 12 -27 -11 -13 -10 -15 7
-12 14 2 18 -2 17 -17 -4 -27 6 -65 15 -65 4 0 7 18 7 40 0 22 3 40 7 40 5 0
8 -4 8 -10 0 -5 7 -10 15 -10 8 0 15 -6 15 -14 0 -9 8 -12 26 -8 16 3 24 1 21
-4 -3 -6 8 -19 24 -29 41 -28 53 -67 28 -94 -11 -12 -25 -21 -30 -21 -6 0 -9
-6 -6 -14 9 -24 -13 -87 -38 -110 -17 -16 -21 -26 -14 -37 5 -7 9 -9 9 -4 0 6
5 3 10 -5 12 -19 13 -33 1 -25 -6 3 -13 -10 -17 -30 -7 -40 -17 -44 -41 -15
-9 11 -20 15 -23 10 -7 -11 -89 27 -106 49 -6 8 -16 11 -22 7 -6 -3 -13 3 -17
13 -4 12 -12 18 -20 14 -9 -3 -18 4 -25 21 -12 34 -25 33 -28 -1 -1 -15 -7
-30 -12 -33 -6 -4 -8 -13 -5 -21 3 -9 -13 -37 -40 -68 -48 -56 -53 -71 -32
-93 23 -22 17 -45 -10 -40 -15 3 -29 16 -37 37 -17 39 -36 54 -36 28 -1 -30
-26 -56 -48 -49 -49 16 -22 75 35 79 18 1 31 6 30 12 -2 5 6 18 17 28 21 18
20 18 -6 2 -26 -16 -28 -16 -35 0 -4 12 1 24 18 37 23 20 24 20 41 -2 28 -34
23 3 -5 45 -18 26 -26 32 -35 23 -9 -9 -19 -5 -42 17 l-30 29 0 -24 c0 -13 12
-36 27 -52 14 -15 24 -30 21 -34 -12 -11 -69 27 -78 52 -13 33 -13 34 6 34 8
0 12 5 9 10 -4 6 -10 8 -15 5 -5 -3 -12 6 -16 20 -8 33 -61 49 -86 27 -10 -8
-18 -11 -18 -6 0 5 -7 1 -15 -10 -13 -18 -14 -17 -21 8 -7 30 3 48 16 27 5 -9
15 -11 26 -7 17 7 17 9 -6 26 -14 11 -31 20 -38 20 -10 0 -10 5 2 22 9 12 16
29 16 37 0 8 7 23 17 33 15 17 15 18 0 18 -22 0 -22 14 0 31 9 8 14 9 10 3 -3
-6 0 -11 7 -11 8 0 12 8 9 21 -4 17 -3 18 6 6 9 -12 10 -8 5 15 -9 39 -13 47
-24 40 -5 -3 -16 2 -24 11 -22 22 -21 -4 1 -28 15 -17 15 -20 3 -28 -26 -16
-90 -12 -90 6 0 8 -4 13 -8 10 -8 -5 -38 23 -57 53 -5 9 -4 12 3 7 7 -4 5 8
-4 30 -8 19 -11 33 -5 30 5 -4 16 0 23 7 11 12 16 12 34 0 19 -12 22 -12 27 1
3 8 15 20 26 26 17 9 20 8 15 -5 -4 -9 0 -15 9 -15 8 0 17 6 20 13 3 7 31 19
63 26 62 13 152 36 161 40 0 1 -1 -8 -4 -19z m967 -45 c0 -8 -7 -15 -15 -15
-16 0 -20 12 -8 23 11 12 23 8 23 -8z m-452 -49 c3 -12 -1 -17 -10 -14 -7 3
-15 13 -16 22 -3 12 1 17 10 14 7 -3 15 -13 16 -22z m-62 -1 c4 -8 1 -22 -6
-30 -15 -18 -5 -49 23 -75 24 -23 19 -25 -17 -7 -14 8 -23 17 -19 20 3 4 -6
11 -21 16 -14 6 -26 15 -26 20 0 5 -3 16 -6 25 -4 10 -1 16 9 16 8 0 17 7 21
15 7 19 35 19 42 0z m-1131 -25 c3 -5 1 -10 -4 -10 -6 0 -11 5 -11 10 0 6 2
10 4 10 3 0 8 -4 11 -10z m90 -19 c-3 -12 -13 -21 -21 -21 -18 0 -18 6 4 28
21 23 26 20 17 -7z m-55 4 c0 -9 -9 -15 -21 -15 -18 0 -19 2 -9 15 7 8 16 15
21 15 5 0 9 -7 9 -15z m-200 -5 c0 -5 -4 -10 -10 -10 -5 0 -10 5 -10 10 0 6 5
10 10 10 6 0 10 -4 10 -10z m1510 0 c0 -5 -7 -10 -16 -10 -8 0 -12 5 -9 10 3
6 10 10 16 10 5 0 9 -4 9 -10z m-120 -14 c0 -11 -19 -15 -25 -6 -3 5 1 10 9
10 9 0 16 -2 16 -4z m-1159 -39 c28 3 39 1 34 -7 -3 -6 -23 -10 -43 -9 -45 3
-54 7 -45 22 4 7 8 7 10 1 2 -6 21 -9 44 -7z m1505 -11 c11 -17 13 -30 6 -42
-8 -14 -10 -13 -16 9 -3 14 -9 32 -12 41 -9 24 3 19 22 -8z m-1571 -6 c3 -5 0
-10 -7 -10 -7 0 -31 -2 -53 -5 l-40 -5 40 14 c51 18 53 18 60 6z m1342 -20 c7
-17 7 -30 2 -30 -5 0 -13 8 -16 18 -4 9 -14 22 -22 29 -14 11 -14 12 4 13 14
0 24 -10 32 -30z m-947 -42 c0 -5 -6 -8 -14 -8 -8 0 -13 10 -13 25 0 23 1 24
13 8 7 -10 14 -21 14 -25z m40 38 c0 -3 -4 -8 -10 -11 -5 -3 -10 -1 -10 4 0 6
5 11 10 11 6 0 10 -2 10 -4z m855 -26 c-3 -4 1 -8 8 -7 33 1 45 -5 50 -23 4
-17 1 -19 -21 -14 -15 4 -33 11 -39 17 -15 11 -18 51 -3 42 6 -4 8 -10 5 -15z
m-1040 -10 c8 -13 -20 -24 -41 -16 -20 8 -9 26 16 26 10 0 22 -5 25 -10z
m-275 -40 c4 7 16 10 26 8 23 -4 29 -67 7 -75 -7 -3 -12 -10 -11 -17 4 -21
-23 -84 -39 -90 -12 -5 -13 -9 -3 -21 7 -8 8 -15 3 -15 -5 0 -15 11 -21 25
-15 33 -15 38 1 29 6 -4 1 5 -12 19 -14 15 -19 27 -13 27 6 0 0 11 -13 25 -26
25 -32 45 -14 45 5 0 7 -4 4 -10 -3 -5 0 -10 8 -10 10 0 13 7 10 20 -8 30 14
52 39 39 15 -8 22 -8 28 1z m170 -52 c0 5 19 13 42 17 36 6 43 4 59 -16 23
-30 23 -36 0 -42 -24 -6 -50 8 -30 16 10 4 9 6 -3 6 -10 1 -18 -6 -18 -14 0
-8 -9 -20 -20 -27 -11 -7 -20 -21 -20 -30 0 -10 -6 -19 -12 -19 -7 -1 -25 -3
-40 -5 -24 -2 -27 0 -25 27 1 22 8 31 26 36 21 5 22 7 8 18 -10 7 -14 19 -10
34 5 21 7 21 24 5 11 -9 19 -12 19 -6z m1430 0 c0 -19 -12 -34 -33 -41 -13 -5
-17 -2 -15 11 6 34 48 60 48 30z m102 -33 c-2 -14 -9 -25 -14 -25 -6 0 -7 7
-4 16 3 9 6 20 6 25 0 5 4 9 9 9 4 0 6 -11 3 -25z m-1794 -20 c3 -3 -8 -5 -26
-3 -18 1 -32 6 -32 10 0 9 48 3 58 -7z m182 -33 c0 -12 -3 -13 -11 -5 -6 6
-18 9 -25 6 -10 -3 -12 0 -8 10 7 19 44 10 44 -11z m1455 -34 c0 -29 -6 -60
-12 -68 -7 -8 -19 -24 -26 -34 -10 -13 -16 -15 -21 -8 -4 7 -2 12 4 12 6 0 8
5 5 10 -4 6 -11 8 -16 5 -5 -3 -6 1 -3 10 4 9 12 14 19 11 8 -3 15 1 18 8 3 7
-4 13 -15 13 -10 1 -22 -5 -25 -13 -3 -8 -9 -14 -14 -14 -8 0 26 56 42 70 3 3
11 15 18 28 18 35 26 26 26 -30z m-1302 35 c8 -7 -34 -39 -47 -35 -5 2 -5 -5
-2 -15 6 -14 5 -15 -5 -6 -10 10 -10 18 1 38 13 24 39 33 53 18z m332 -3 c3
-5 1 -10 -4 -10 -6 0 -11 5 -11 10 0 6 2 10 4 10 3 0 8 -4 11 -10z m-680 -20
c-10 -11 -25 -20 -34 -19 -10 0 -8 3 7 9 12 5 22 14 22 20 0 5 5 10 12 10 6 0
3 -9 -7 -20z m1798 1 c-5 -3 -12 -14 -16 -23 -3 -10 -11 -18 -17 -18 -6 0 -4
12 5 30 9 17 21 28 26 24 7 -4 7 -9 2 -13z m-473 -27 c0 -8 -4 -12 -10 -9 -5
3 -10 10 -10 16 0 5 5 9 10 9 6 0 10 -7 10 -16z m-1266 -41 c14 -17 26 -38 26
-47 0 -23 16 -20 43 10 20 22 28 24 45 15 16 -9 22 -7 34 11 10 14 20 19 31
15 22 -8 22 -53 1 -61 -11 -4 -14 -13 -10 -31 4 -16 2 -25 -5 -25 -6 0 -9 -6
-6 -14 3 -8 -1 -17 -10 -20 -9 -4 -13 -13 -9 -22 4 -10 2 -13 -7 -8 -9 5 -9 4
1 -7 6 -7 12 -17 12 -22 0 -4 -6 -5 -12 -2 -7 4 -3 -2 9 -13 20 -18 21 -32 2
-32 -5 0 -32 20 -61 45 -73 63 -76 65 -87 65 -17 0 -24 22 -10 31 11 7 10 9
-4 9 -17 0 -39 38 -30 53 2 4 12 3 22 -2 15 -8 16 -5 13 25 -2 19 -9 37 -15
41 -6 4 -8 -2 -5 -15 4 -12 2 -20 -3 -16 -5 3 -9 12 -9 20 0 8 -4 14 -10 14
-5 0 -10 4 -10 8 0 19 40 4 64 -25z m752 -22 c-11 -4 -46 35 -46 51 0 6 12 -2
28 -18 15 -16 23 -31 18 -33z m701 34 c0 -8 -4 -12 -9 -9 -5 3 -6 10 -3 15 9
13 12 11 12 -6z m-822 -9 c16 -12 17 -16 6 -30 -15 -17 -48 -21 -70 -7 -10 7
-11 13 -2 30 13 24 39 27 66 7z m-260 -16 c3 -5 1 -10 -4 -10 -6 0 -11 5 -11
10 0 6 2 10 4 10 3 0 8 -4 11 -10z m937 3 c-6 -2 -10 -9 -6 -14 3 -5 0 -9 -5
-9 -12 0 -14 13 -4 23 3 4 11 7 17 6 6 0 5 -3 -2 -6z m-945 -38 c9 -25 -4 -29
-17 -6 -7 15 -7 21 0 21 6 0 13 -7 17 -15z m617 6 c3 -5 -5 -8 -18 -7 -13 0
-22 4 -19 9 6 10 31 9 37 -2z m-1044 -17 c0 -14 -3 -14 -15 -4 -8 7 -15 14
-15 16 0 2 7 4 15 4 8 0 15 -7 15 -16z m1576 -12 c2 -9 -5 -25 -14 -36 -16
-18 -16 -18 7 -11 17 5 22 4 19 -6 -4 -12 -64 -21 -80 -12 -4 2 -2 15 4 28 8
18 14 22 24 14 9 -7 14 -2 19 21 7 32 17 33 21 2z m-476 -4 c0 -7 -5 -20 -10
-28 -12 -20 -33 0 -24 23 7 20 34 23 34 5z m540 6 c0 -3 -7 -12 -16 -21 -11
-12 -18 -13 -27 -4 -8 8 -7 11 6 11 9 0 17 5 17 10 0 6 5 10 10 10 6 0 10 -3
10 -6z m-1292 -40 c1 -14 -2 -23 -7 -20 -7 5 -8 23 -2 44 3 9 7 -2 9 -24z
m1019 0 c-3 -3 -12 -4 -19 -1 -8 3 -5 6 6 6 11 1 17 -2 13 -5z m390 -36 c-3
-8 -6 -5 -6 6 -1 11 2 17 5 13 3 -3 4 -12 1 -19z m-657 -13 c-26 -28 -40 -32
-40 -12 0 8 10 19 23 25 36 18 42 14 17 -13z m-1282 -33 c2 -25 -1 -42 -7 -42
-6 0 -11 -7 -11 -15 0 -8 5 -15 10 -15 6 0 10 -5 10 -10 0 -6 -8 -5 -20 2 -16
10 -19 20 -14 45 5 24 3 33 -7 33 -10 1 -9 4 3 11 10 6 15 16 11 26 -4 11 -2
14 8 11 8 -3 15 -21 17 -46z m457 38 c-3 -5 -1 -10 6 -10 7 0 4 -6 -7 -14 -18
-14 -18 -16 -2 -28 14 -11 15 -15 3 -25 -11 -10 -15 -5 -20 27 -7 40 -1 60 16
60 6 0 7 -4 4 -10z m1206 -53 c-13 -13 -15 11 -4 40 7 16 8 15 11 -6 2 -13 -1
-28 -7 -34z m-1441 28 c0 -2 -10 -9 -22 -15 -22 -11 -22 -10 -4 4 21 17 26 19
26 11z m431 -28 c-16 -16 -25 -1 -10 16 8 8 16 11 18 5 2 -5 -2 -15 -8 -21z
m862 17 c3 -3 3 -13 0 -21 -5 -12 -7 -12 -14 -1 -15 23 -4 40 14 22z m-1256
-35 c8 -14 9 -25 3 -27 -6 -2 -6 -11 0 -23 8 -15 7 -19 -5 -19 -8 0 -15 6 -15
13 0 8 -4 7 -10 -3 -8 -11 -9 -8 -4 13 5 23 3 29 -15 34 -26 7 -26 12 -3 29
22 17 34 13 49 -17z m768 11 c3 -6 -1 -7 -9 -4 -18 7 -21 14 -7 14 6 0 13 -4
16 -10z m371 -17 c4 -16 12 -35 18 -43 9 -13 9 -13 -6 -2 -19 16 -41 72 -28
72 5 0 13 -12 16 -27z m264 2 c0 -2 -9 -3 -19 -2 -11 0 -18 5 -15 9 4 6 34 0
34 -7z m-197 -12 c-3 -7 -9 -10 -14 -7 -14 8 -11 21 5 21 8 0 12 -6 9 -14z
m-363 -25 c0 -14 -16 -9 -36 13 -19 21 -19 21 9 8 15 -7 27 -16 27 -21z m283
-30 c-5 -10 -43 -10 -43 -1 0 3 8 15 17 25 17 19 18 19 24 1 4 -10 5 -21 2
-25z m512 13 c6 -1 -1 -7 -15 -14 -17 -9 -27 -10 -32 -3 -13 19 -9 26 15 22
12 -3 27 -5 32 -5z m-55 -20 c0 -12 -20 -25 -27 -18 -7 7 6 27 18 27 5 0 9 -4
9 -9z m-596 -27 c21 -8 21 -24 0 -24 -10 0 -14 -5 -10 -15 4 -13 2 -14 -14 -5
-41 22 -20 61 24 44z m601 -31 c-11 -16 -20 -23 -23 -15 -2 6 -8 12 -14 12 -6
0 -5 -6 2 -15 11 -13 9 -19 -9 -36 -37 -34 -62 -12 -41 36 7 17 9 17 9 3 1
-25 21 -22 21 2 0 14 11 26 33 35 40 17 44 13 22 -22z m-360 -13 c-10 -11 -22
-17 -26 -14 -15 9 -10 22 9 27 33 9 35 7 17 -13z m-132 -30 c5 -21 -7 -27 -18
-10 -4 6 -15 8 -25 5 -10 -3 -22 -1 -26 6 -5 8 2 10 25 7 34 -5 38 0 19 22
-11 12 -10 12 3 2 9 -7 19 -22 22 -32z m74 34 c-3 -3 -12 -4 -19 -1 -8 3 -5 6
6 6 11 1 17 -2 13 -5z m-1502 -24 c3 -5 1 -10 -4 -10 -6 0 -11 5 -11 10 0 6 2
10 4 10 3 0 8 -4 11 -10z m1295 6 c0 -2 -7 -6 -15 -10 -8 -3 -15 -1 -15 4 0 6
7 10 15 10 8 0 15 -2 15 -4z m420 -18 c0 -4 -5 -8 -11 -8 -5 0 -7 -4 -4 -10 3
-5 4 -10 1 -10 -3 0 -10 9 -16 19 -8 17 -7 20 10 18 11 -1 20 -5 20 -9z m-220
-8 c0 -5 -8 -10 -17 -10 -15 0 -16 2 -3 10 19 12 20 12 20 0z m-80 -40 c0 -5
-5 -10 -11 -10 -5 0 -7 5 -4 10 3 6 8 10 11 10 2 0 4 -4 4 -10z m420 0 c0 -5
-4 -10 -10 -10 -5 0 -10 5 -10 10 0 6 5 10 10 10 6 0 10 -4 10 -10z m-934 -26
c-3 -8 1 -17 9 -21 11 -4 13 -9 5 -18 -8 -9 -7 -14 2 -17 10 -4 10 -8 -1 -22
-14 -16 -16 -14 -28 26 -7 24 -8 44 -3 46 5 2 6 10 3 19 -4 11 -3 14 6 9 7 -5
10 -14 7 -22z m39 -2 c0 -18 -20 -15 -23 4 -3 10 1 15 10 12 7 -3 13 -10 13
-16z m655 -2 c0 -5 9 -10 20 -10 17 0 19 -5 15 -27 -5 -27 -5 -27 5 -4 8 19
13 21 25 11 8 -6 19 -9 25 -5 5 3 10 -1 10 -9 0 -9 -5 -16 -11 -16 -6 0 -24
-9 -40 -21 -23 -16 -33 -18 -43 -9 -10 7 -16 8 -21 0 -3 -5 -13 -10 -21 -10
-8 0 -12 5 -9 10 3 6 -1 17 -10 26 -18 18 -17 59 2 59 6 0 15 3 19 8 11 10 34
9 34 -3z m151 -4 c5 3 9 1 9 -5 0 -5 3 -16 6 -25 5 -12 0 -16 -21 -16 -14 0
-24 4 -21 9 3 5 -1 11 -9 15 -8 3 -15 10 -15 15 0 12 34 20 38 9 2 -5 8 -6 13
-2z m-787 -37 c-3 -5 -10 -7 -15 -3 -5 3 -7 10 -3 15 3 5 10 7 15 3 5 -3 7
-10 3 -15z m334 -4 c6 -14 16 -25 22 -25 5 0 10 -4 10 -10 0 -5 -9 -10 -20
-10 -11 0 -20 5 -20 11 0 5 -4 8 -9 4 -5 -3 -12 -1 -16 5 -3 5 -17 10 -31 10
-48 0 -12 30 47 39 3 1 11 -10 17 -24z m-163 -5 c3 -5 2 -10 -4 -10 -5 0 -13
5 -16 10 -3 6 -2 10 4 10 5 0 13 -4 16 -10z m-158 -32 c-3 -7 -5 -2 -5 12 0
14 2 19 5 13 2 -7 2 -19 0 -25z m453 -54 c0 -17 -4 -22 -15 -18 -8 4 -15 14
-15 23 0 10 7 18 15 18 9 0 15 -10 15 -23z m-382 -39 c-8 -8 -68 -25 -68 -19
0 6 41 23 59 23 8 1 12 -1 9 -4z m42 -16 c-34 -23 -70 -39 -70 -31 0 5 15 16
33 25 36 18 60 22 37 6z m-290 -30 c0 -6 -4 -7 -10 -4 -5 3 -10 11 -10 16 0 6
5 7 10 4 6 -3 10 -11 10 -16z m340 -89 c0 -5 6 -10 14 -10 7 0 16 -9 19 -20 7
-26 -8 -25 -35 2 -13 13 -32 22 -43 21 -20 -3 -20 -3 0 6 27 13 45 13 45 1z
m178 -26 c-25 -26 -41 -35 -54 -30 -22 8 -6 26 25 29 12 1 29 9 38 19 9 10 19
18 22 18 3 0 -11 -16 -31 -36z m-98 -51 c-1 -15 -28 -43 -41 -43 -10 1 -9 4 4
11 9 5 17 17 17 24 0 8 5 15 10 15 6 0 10 -3 10 -7z m40 3 c0 -3 -4 -8 -10
-11 -5 -3 -10 -1 -10 4 0 6 5 11 10 11 6 0 10 -2 10 -4z"/>
<path d="M1670 3183 c0 -9 -8 -25 -17 -35 -16 -17 -15 -18 8 -16 13 2 27 11
31 21 4 10 18 17 33 17 16 0 25 6 25 15 0 11 -11 15 -40 15 -31 0 -40 -4 -40
-17z"/>
<path d="M1588 3183 c7 -3 16 -2 19 1 4 3 -2 6 -13 5 -11 0 -14 -3 -6 -6z"/>
<path d="M1511 3143 c1 -24 17 -71 18 -55 1 6 10 12 21 12 22 0 25 7 11 29 -8
12 -12 13 -25 1 -14 -11 -16 -10 -11 3 4 8 2 18 -4 22 -6 3 -11 -1 -10 -12z"/>
<path d="M1608 3123 c7 -3 16 -2 19 1 4 3 -2 6 -13 5 -11 0 -14 -3 -6 -6z"/>
<path d="M1710 3120 c0 -5 7 -7 15 -4 8 4 15 8 15 10 0 2 -7 4 -15 4 -8 0 -15
-4 -15 -10z"/>
<path d="M1695 3090 c-16 -7 -16 -9 -4 -9 12 -1 18 -13 21 -38 5 -41 -11 -67
-36 -57 -10 4 -17 -5 -25 -32 -11 -39 -5 -66 10 -43 6 10 9 10 9 2 0 -23 -23
-26 -40 -5 -26 31 -32 14 -8 -19 l22 -29 22 21 c13 13 30 19 39 15 9 -3 24 3
35 14 13 13 20 15 24 7 2 -7 5 -4 5 6 1 14 6 17 21 12 11 -4 20 -2 20 4 0 6
-9 11 -19 11 -23 0 -37 30 -19 42 7 5 23 7 36 5 26 -5 27 -3 6 17 -11 12 -20
13 -34 6 -22 -12 -37 3 -42 44 -3 33 -13 39 -43 26z"/>
<path d="M1652 3056 c-8 -19 -8 -27 2 -35 21 -17 36 9 21 36 l-12 23 -11 -24z"/>
<path d="M1765 2880 c-3 -5 1 -10 9 -10 9 0 16 5 16 10 0 6 -4 10 -9 10 -6 0
-13 -4 -16 -10z"/>
<path d="M1665 2859 c-4 -6 -5 -12 -2 -15 2 -3 7 2 10 11 7 17 1 20 -8 4z"/>
<path d="M1235 3089 c-4 -6 -5 -12 -2 -15 2 -3 7 2 10 11 7 17 1 20 -8 4z"/>
<path d="M1230 3056 c0 -2 8 -10 18 -17 15 -13 16 -12 3 4 -13 16 -21 21 -21
13z"/>
<path d="M1270 2687 c0 -5 15 -7 33 -4 17 3 26 3 20 0 -7 -2 -13 -9 -13 -14 0
-6 6 -9 13 -8 31 4 39 0 25 -14 -7 -7 -22 -17 -33 -21 -19 -8 -19 -9 3 -15 13
-3 23 -9 23 -13 -2 -22 0 -28 10 -28 6 0 13 9 16 19 3 13 11 18 21 14 12 -4
11 -1 -3 10 -18 14 -21 14 -27 -1 -6 -15 -7 -15 -7 -1 -1 23 23 41 45 32 17
-6 18 -5 4 13 -8 10 -22 25 -30 31 -17 15 -100 14 -100 0z"/>
<path d="M993 2679 c-14 -4 -10 -7 15 -11 17 -2 32 0 32 5 0 5 8 6 17 3 10 -4
14 -3 9 1 -9 10 -48 11 -73 2z"/>
<path d="M1158 2683 c7 -3 16 -2 19 1 4 3 -2 6 -13 5 -11 0 -14 -3 -6 -6z"/>
<path d="M935 2670 c4 -6 11 -8 16 -5 14 9 11 15 -7 15 -8 0 -12 -5 -9 -10z"/>
<path d="M1190 2630 c-13 -8 -12 -10 2 -10 9 0 26 -14 38 -30 12 -17 25 -28
30 -25 5 3 11 1 15 -5 10 -16 42 -12 49 6 7 19 -2 33 -12 19 -4 -6 -13 -11
-21 -13 -9 -2 -12 5 -9 23 4 17 1 25 -8 25 -8 0 -11 -6 -8 -15 7 -18 -12 -20
-23 -2 -16 25 -38 36 -53 27z"/>
<path d="M1115 2610 c-4 -7 -3 -15 1 -19 5 -3 15 -17 21 -31 16 -35 16 -9 -1
30 -9 22 -16 28 -21 20z"/>
<path d="M1430 2595 c-19 -49 -11 -65 20 -45 12 8 13 13 2 30 -7 12 -8 20 -2
20 6 0 15 -10 20 -22 8 -21 9 -21 9 -3 1 11 -8 26 -19 33 -18 11 -21 9 -30
-13z"/>
<path d="M1161 2565 c0 -16 4 -37 9 -45 8 -12 10 -11 9 5 -1 11 -5 31 -9 45
-8 24 -8 24 -9 -5z"/>
<path d="M1080 2570 c0 -5 5 -10 10 -10 6 0 10 5 10 10 0 6 -4 10 -10 10 -5 0
-10 -4 -10 -10z"/>
<path d="M1322 2539 c-7 -11 -8 -20 -2 -24 6 -3 10 -2 10 4 0 5 6 11 14 13 11
2 11 5 2 14 -10 9 -15 7 -24 -7z"/>
<path d="M1376 2551 c-8 -13 3 -38 18 -44 9 -4 11 2 8 19 -5 27 -18 39 -26 25z"/>
<path d="M1020 2505 c-11 -13 -8 -15 13 -15 19 0 25 4 21 15 -4 8 -10 15 -14
15 -4 0 -13 -7 -20 -15z"/>
<path d="M1126 2503 c-6 -14 -5 -15 5 -6 7 7 10 15 7 18 -3 3 -9 -2 -12 -12z"/>
<path d="M1076 2463 c-6 -14 -5 -15 5 -6 7 7 10 15 7 18 -3 3 -9 -2 -12 -12z"/>
<path d="M1300 2446 c0 -2 7 -7 16 -10 8 -3 12 -2 9 4 -6 10 -25 14 -25 6z"/>
<path d="M1045 2430 c-4 -6 1 -7 11 -3 12 4 15 3 10 -5 -10 -16 22 -28 36 -14
8 8 4 9 -13 6 -17 -4 -20 -3 -11 4 11 7 10 10 -3 16 -22 8 -23 8 -30 -4z"/>
<path d="M1240 2387 c0 -4 -4 -6 -9 -3 -5 4 -4 -4 2 -16 9 -20 18 -23 71 -23
34 0 66 3 72 7 7 4 17 2 23 -5 6 -8 23 -12 41 -9 l31 4 -31 19 c-17 11 -35 17
-40 14 -5 -3 -21 2 -36 11 -20 14 -27 15 -34 4 -4 -7 -13 -9 -20 -5 -17 11
-70 13 -70 2z"/>
<path d="M1690 2289 c0 -5 5 -7 10 -4 6 3 10 8 10 11 0 2 -4 4 -10 4 -5 0 -10
-5 -10 -11z"/>
<path d="M2743 2485 c-3 -9 -3 -18 -1 -21 3 -3 8 4 11 16 6 23 -1 27 -10 5z"/>
<path d="M2766 2435 c4 -9 13 -15 21 -13 23 5 20 23 -4 26 -18 3 -21 0 -17
-13z"/>
<path d="M2060 2073 c-19 -7 -54 -43 -42 -43 5 0 15 7 22 15 7 8 21 15 31 15
10 0 21 5 24 10 7 11 -10 12 -35 3z"/>
<path d="M1945 2000 c-3 -5 1 -10 9 -10 8 0 21 -7 29 -15 12 -12 16 -12 20 -1
3 7 1 19 -4 27 -6 10 -9 11 -9 1 0 -9 -5 -10 -19 -2 -13 7 -22 7 -26 0z"/>
<path d="M2030 1990 c-8 -5 -10 -10 -5 -10 6 0 17 5 25 10 8 5 11 10 5 10 -5
0 -17 -5 -25 -10z"/>
<path d="M2011 1957 c-6 -8 -8 -17 -4 -20 12 -12 19 -7 19 13 0 24 0 24 -15 7z"/>
<path d="M2164 1929 c0 -22 12 -25 19 -5 3 8 0 16 -6 19 -7 3 -13 -3 -13 -14z"/>
<path d="M2290 1890 c0 -5 5 -10 11 -10 5 0 7 5 4 10 -3 6 -8 10 -11 10 -2 0
-4 -4 -4 -10z"/>
<path d="M2210 1870 c0 -5 4 -10 9 -10 6 0 13 5 16 10 3 6 -1 10 -9 10 -9 0
-16 -4 -16 -10z"/>
<path d="M2280 1850 c0 -11 4 -20 9 -20 11 0 22 26 14 34 -12 12 -23 5 -23
-14z"/>
<path d="M1840 1850 c0 -5 7 -10 16 -10 8 0 12 5 9 10 -3 6 -10 10 -16 10 -5
0 -9 -4 -9 -10z"/>
<path d="M2248 1813 c-10 -2 -18 -8 -18 -13 0 -5 -3 -15 -6 -24 -10 -25 10
-19 21 7 6 12 18 22 27 22 9 0 20 4 24 8 8 7 -19 8 -48 0z"/>
<path d="M2300 1790 c0 -5 5 -10 11 -10 5 0 7 5 4 10 -3 6 -8 10 -11 10 -2 0
-4 -4 -4 -10z"/>
<path d="M1545 2080 c-3 -5 -1 -18 4 -27 9 -16 10 -14 11 10 0 28 -5 34 -15
17z"/>
<path d="M3205 2020 c4 -6 11 -8 16 -5 14 9 11 15 -7 15 -8 0 -12 -5 -9 -10z"/>
<path d="M1777 1399 c7 -7 15 -10 18 -7 3 3 -2 9 -12 12 -14 6 -15 5 -6 -5z"/>
<path d="M1850 1360 c-9 -6 -10 -10 -3 -10 6 0 15 5 18 10 8 12 4 12 -15 0z"/>
<path d="M2355 1320 c3 -5 11 -10 16 -10 6 0 7 5 4 10 -3 6 -11 10 -16 10 -6
0 -7 -4 -4 -10z"/>
<path d="M2450 1246 c0 -2 8 -10 18 -17 15 -13 16 -12 3 4 -13 16 -21 21 -21
13z"/>
<path d="M2315 940 c4 -6 11 -8 16 -5 14 9 11 15 -7 15 -8 0 -12 -5 -9 -10z"/>
<path d="M1386 896 c3 -8 12 -17 20 -20 22 -8 17 -40 -10 -65 l-25 -23 -23 24
c-17 18 -28 23 -43 18 -18 -7 -18 -8 8 -15 15 -4 27 -13 27 -20 0 -8 14 -24
32 -36 17 -13 29 -18 26 -13 -8 12 21 76 39 87 17 11 3 38 -31 61 -20 13 -24
13 -20 2z"/>
<path d="M1351 868 c-1 -13 7 -18 25 -18 16 0 23 -4 18 -12 -4 -7 -3 -8 5 -4
16 10 4 26 -19 26 -10 0 -21 6 -23 13 -3 7 -6 5 -6 -5z"/>
<path d="M400 3425 c0 -8 5 -15 10 -15 6 0 10 7 10 15 0 8 -4 15 -10 15 -5 0
-10 -7 -10 -15z"/>
<path d="M1298 3411 c-15 -15 -15 -18 -3 -18 8 0 15 5 15 10 0 5 7 6 16 3 10
-4 14 -1 12 6 -7 19 -21 18 -40 -1z"/>
<path d="M1202 3335 c-12 -14 -18 -25 -13 -25 5 0 7 -10 3 -22 -4 -15 -2 -19
7 -14 7 5 10 10 7 13 -3 3 2 19 10 35 20 39 13 45 -14 13z"/>
<path d="M180 3189 c0 -5 5 -7 10 -4 6 3 10 8 10 11 0 2 -4 4 -10 4 -5 0 -10
-5 -10 -11z"/>
<path d="M277 2593 c-9 -2 -14 -9 -10 -15 4 -7 0 -9 -10 -5 -27 10 -21 -26 9
-52 28 -24 74 -45 74 -33 0 4 -9 13 -20 20 -28 17 -44 60 -29 78 6 8 10 13 8
13 -2 -1 -12 -3 -22 -6z"/>
<path d="M410 2566 c0 -2 20 -14 45 -26 25 -12 43 -26 39 -31 -3 -5 0 -9 5 -9
21 0 10 18 -27 44 -34 23 -62 33 -62 22z"/>
<path d="M370 2520 c-7 -23 -7 -40 2 -40 5 0 8 -6 5 -12 -2 -7 3 -18 12 -25
22 -17 36 -16 21 2 -6 8 -9 19 -6 24 4 5 0 13 -7 18 -8 4 -17 15 -20 23 -3 8
-6 13 -7 10z"/>
<path d="M482 2454 c4 -27 1 -30 -16 -26 -13 3 -17 1 -12 -6 4 -7 16 -12 27
-12 21 0 26 34 8 60 -8 12 -10 8 -7 -16z"/>
<path d="M740 2454 c0 -8 5 -12 10 -9 6 4 8 11 5 16 -9 14 -15 11 -15 -7z"/>
<path d="M795 2460 c3 -5 8 -10 11 -10 2 0 4 5 4 10 0 6 -5 10 -11 10 -5 0 -7
-4 -4 -10z"/>
<path d="M450 2356 c0 -7 9 -16 20 -19 11 -3 20 -2 20 2 0 3 -9 12 -20 19 -16
10 -20 10 -20 -2z"/>
<path d="M505 2320 c3 -5 11 -10 16 -10 6 0 7 5 4 10 -3 6 -11 10 -16 10 -6 0
-7 -4 -4 -10z"/>
<path d="M640 2280 c0 -5 5 -10 10 -10 6 0 10 5 10 10 0 6 -4 10 -10 10 -5 0
-10 -4 -10 -10z"/>
<path d="M575 2270 c3 -5 -8 -9 -27 -8 -18 0 -149 -10 -291 -23 l-257 -23 2
-28 c2 -21 6 -27 18 -22 8 3 50 10 92 15 43 5 95 12 115 15 54 8 104 13 216
19 54 2 102 7 107 10 5 3 11 1 15 -5 10 -17 26 0 20 21 -5 15 -1 19 17 20 22
0 22 1 3 9 -27 12 -37 12 -30 0z"/>
<path d="M36 2131 c-4 -6 -4 -42 0 -79 4 -37 7 -73 5 -81 -2 -9 3 -12 14 -7 9
3 21 6 26 6 5 0 9 9 9 20 0 11 5 20 10 20 6 0 10 9 10 20 0 11 -4 20 -10 20
-5 0 -10 -6 -10 -12 0 -9 -3 -8 -10 2 -5 8 -7 24 -5 35 6 24 -29 73 -39 56z"/>
<path d="M790 2036 c0 -2 8 -10 18 -17 15 -13 16 -12 3 4 -13 16 -21 21 -21
13z"/>
<path d="M690 1920 c20 -13 43 -13 35 0 -3 6 -16 10 -28 10 -18 0 -19 -2 -7
-10z"/>
<path d="M270 1880 c-9 -6 -10 -10 -3 -10 6 0 15 5 18 10 8 12 4 12 -15 0z"/>
<path d="M682 1860 c-10 -16 -9 -21 8 -30 17 -9 20 -8 20 14 0 32 -13 40 -28
16z"/>
<path d="M220 1860 c-8 -5 -10 -10 -5 -10 6 0 17 5 25 10 8 5 11 10 5 10 -5 0
-17 -5 -25 -10z"/>
<path d="M139 1853 c-1 -5 -1 -11 0 -15 0 -5 -3 -8 -9 -8 -5 0 -10 5 -10 11 0
5 -5 7 -10 4 -6 -4 -8 -11 -5 -16 8 -13 45 -11 45 2 0 5 5 7 10 4 6 -3 10 -2
10 4 0 5 8 12 18 14 9 3 2 5 -15 6 -18 0 -34 -2 -34 -6z"/>
<path d="M255 1810 c3 -5 8 -10 11 -10 2 0 4 5 4 10 0 6 -5 10 -11 10 -5 0 -7
-4 -4 -10z"/>
<path d="M370 1798 c-14 -6 -42 -10 -62 -9 -36 2 -50 -10 -28 -24 6 -3 10 -1
10 5 0 7 5 8 17 1 17 -9 85 10 108 31 13 11 -14 9 -45 -4z"/>
<path d="M603 1786 c5 -16 27 -19 27 -3 0 7 -7 14 -15 14 -9 0 -14 -5 -12 -11z"/>
<path d="M0 1771 c0 -5 13 -11 30 -14 39 -8 80 -36 80 -54 0 -8 5 -13 12 -11
14 5 60 -41 53 -53 -3 -4 0 -11 7 -15 7 -4 10 -4 7 0 -4 4 4 19 17 33 l24 26
-30 18 c-16 10 -30 22 -30 27 0 10 73 3 80 -8 3 -4 23 1 45 11 l40 18 -95 0
c-52 1 -111 5 -130 10 -57 15 -110 20 -110 12z"/>
<path d="M410 1741 c0 -11 5 -23 10 -26 6 -4 10 5 10 19 0 14 -4 26 -10 26 -5
0 -10 -9 -10 -19z"/>
<path d="M440 1720 c0 -5 9 -10 21 -10 11 0 17 5 14 10 -3 6 -13 10 -21 10 -8
0 -14 -4 -14 -10z"/>
<path d="M463 1689 c-6 -6 -9 -17 -6 -24 2 -8 0 -23 -7 -34 -8 -17 -8 -21 4
-21 11 0 12 -7 7 -27 -5 -16 -3 -36 3 -47 8 -14 8 -20 -2 -23 -13 -5 -7 -23 7
-23 14 0 20 37 8 49 -7 7 -6 19 3 40 6 16 9 35 5 40 -3 6 1 11 9 11 8 0 14 -8
14 -17 0 -10 3 -27 7 -38 5 -16 5 -17 -4 -5 -9 13 -11 13 -12 0 -1 -8 0 -25 1
-38 1 -13 -4 -29 -10 -37 -6 -8 -8 -20 -4 -26 4 -7 3 -9 -2 -6 -6 3 -10 -11
-9 -34 0 -33 3 -39 20 -37 18 3 20 -3 21 -47 1 -58 -17 -85 -55 -85 -18 0 -22
-3 -13 -9 10 -6 7 -10 -13 -15 -20 -5 -25 -11 -20 -25 3 -11 1 -22 -5 -26 -5
-3 -10 2 -11 12 0 10 -3 13 -6 6 -2 -7 -11 -13 -19 -13 -8 0 -17 -6 -20 -14
-6 -16 -33 -12 -79 12 -5 3 -4 -2 4 -11 7 -9 11 -23 8 -31 -3 -7 0 -19 6 -26
9 -10 9 -14 -1 -17 -6 -3 -10 -9 -7 -14 8 -12 -28 2 -38 15 -5 6 -6 -1 -3 -16
3 -15 2 -30 -4 -33 -5 -3 -10 3 -10 13 0 15 -5 19 -20 15 -11 -3 -20 0 -20 6
0 6 -7 11 -15 11 -8 0 -15 5 -15 11 0 8 -4 8 -15 -1 -8 -6 -13 -17 -12 -22 1
-6 -4 -13 -10 -15 -7 -3 -13 2 -13 11 0 9 5 16 10 16 6 0 10 5 10 10 0 6 -9
10 -19 10 -20 0 -35 24 -40 60 -2 15 -31 12 -31 -2 0 -7 -9 -2 -20 12 l-20 25
0 -27 c0 -16 4 -28 9 -28 18 0 21 -33 4 -47 -17 -13 -16 -14 5 -10 13 3 20 1
16 -5 -3 -5 3 -12 15 -15 15 -4 21 -13 21 -34 0 -22 5 -29 20 -29 12 0 20 -7
20 -16 0 -8 7 -22 15 -30 13 -14 15 -13 15 7 0 18 3 20 12 11 9 -9 17 -6 33
15 13 16 26 23 34 19 8 -6 9 -11 1 -21 -7 -9 -6 -16 4 -24 12 -10 14 -7 12 22
-3 30 0 34 16 29 15 -4 17 -7 6 -13 -10 -7 -10 -9 0 -9 6 0 12 -6 12 -14 0
-20 -30 -48 -46 -42 -8 3 -11 -2 -9 -16 6 -31 13 -33 35 -13 17 15 20 16 20 2
0 -10 8 -14 24 -13 18 2 23 -1 19 -11 -3 -8 -14 -13 -24 -10 -12 3 -16 0 -12
-9 7 -19 -24 -8 -54 18 -20 19 -21 19 -32 1 -6 -10 -11 -13 -11 -8 0 13 -50
19 -50 6 0 -15 35 -48 47 -44 6 2 23 -3 37 -12 14 -9 27 -16 30 -16 23 3 30 0
17 -8 -7 -5 -21 -7 -30 -6 -9 2 -19 4 -23 4 -5 1 -8 8 -8 17 0 8 -5 12 -11 9
-6 -4 -8 -13 -5 -20 5 -15 -17 -38 -27 -28 -4 3 -7 1 -7 -4 0 -6 5 -13 12 -15
13 -5 4 -38 -11 -38 -6 0 -8 8 -4 18 6 15 4 15 -15 -2 -16 -14 -19 -22 -11
-32 6 -8 6 -14 0 -18 -5 -3 -11 -1 -13 5 -2 7 -13 9 -27 4 -20 -6 -22 -11 -16
-43 4 -21 11 -40 17 -43 6 -4 7 -16 3 -29 -5 -14 -3 -20 3 -16 6 4 8 -2 5 -14
-3 -11 1 -28 8 -37 12 -14 12 -16 -1 -8 -12 6 -12 5 -3 -5 9 -10 23 -5 67 22
42 26 63 34 83 30 22 -5 24 -7 8 -9 -52 -9 -66 -15 -94 -39 -50 -42 -31 -96
22 -62 12 8 49 25 82 37 33 12 88 36 121 52 66 31 89 37 59 16 -13 -10 -15
-16 -6 -21 7 -5 20 -1 29 7 14 13 26 14 60 6 53 -12 66 -5 48 24 -17 26 -15
69 4 75 9 3 11 -4 6 -30 -8 -42 3 -56 19 -25 7 14 8 27 3 34 -6 7 -7 17 -3 23
3 5 2 10 -2 10 -5 0 -8 15 -8 32 0 22 8 40 25 55 14 13 18 21 10 18 -11 -4
-15 4 -17 30 -2 42 8 44 36 9 23 -29 24 -28 25 29 1 32 -2 37 -22 37 -19 0
-23 5 -20 23 2 14 9 21 18 18 8 -2 23 -3 33 -3 10 0 17 -7 17 -19 0 -28 15
-23 16 6 1 16 -3 25 -13 25 -12 0 -14 7 -9 33 l6 32 -19 -24 c-26 -34 -67 -36
-87 -5 -20 29 -13 51 18 56 19 2 22 8 20 32 -3 30 21 66 45 66 8 0 12 4 8 10
-3 5 -12 7 -19 4 -7 -3 -16 2 -20 11 -3 9 -2 13 4 10 6 -3 13 1 16 10 4 9 13
14 20 11 20 -8 25 9 9 30 -8 10 -14 24 -15 29 0 6 5 3 11 -5 8 -11 9 -6 4 20
-11 54 -7 124 11 195 9 35 40 38 69 7 14 -15 25 -22 25 -16 0 6 -13 23 -30 37
-16 15 -32 38 -36 52 -5 21 -9 23 -26 14 -11 -6 -26 -8 -33 -5 -8 3 -17 1 -20
-3 -2 -5 -27 -20 -54 -35 -39 -20 -50 -22 -55 -11 -3 8 3 17 15 20 19 6 19 8
3 19 -11 9 -15 21 -11 36 3 13 3 36 0 52 -4 21 -10 27 -23 23 -9 -3 -28 3 -41
14 -20 16 -21 21 -10 35 15 18 1 22 -16 5z m175 -242 c3 -41 -6 -77 -19 -77
-6 0 -8 9 -4 20 4 13 1 22 -9 26 -20 8 -20 15 2 42 23 29 27 28 30 -11z m-97
-24 c-9 -16 -10 -14 -11 12 0 21 3 26 11 18 8 -8 8 -16 0 -30z m86 -93 c-3
-11 -1 -18 4 -14 5 3 9 1 9 -4 0 -10 -30 -25 -37 -19 -5 6 15 57 23 57 3 0 4
-9 1 -20z m-80 -5 c0 -8 -4 -12 -9 -9 -4 3 -8 9 -8 15 0 5 4 9 8 9 5 0 9 -7 9
-15z m87 -60 c-6 -16 -24 -21 -24 -7 0 11 11 22 21 22 5 0 6 -7 3 -15z m-69
-46 c11 -17 -1 -21 -15 -4 -8 9 -8 15 -2 15 6 0 14 -5 17 -11z m-127 -44 c-2
-6 -13 -10 -25 -10 -13 1 -23 -3 -23 -7 0 -4 -7 -8 -15 -8 -8 0 -15 -4 -15
-10 0 -5 5 -10 10 -10 6 0 10 -5 10 -12 0 -9 -3 -9 -11 -1 -6 6 -18 9 -25 6
-22 -8 -16 10 11 36 14 13 32 21 40 18 8 -4 17 -2 21 4 7 12 27 7 22 -6z m155
-30 c-3 -9 -8 -14 -10 -11 -3 3 -2 9 2 15 9 16 15 13 8 -4z m-502 -43 c-8 -3
-17 0 -19 7 -2 6 -10 11 -18 11 -8 0 -14 5 -14 10 0 6 15 3 33 -6 21 -12 27
-19 18 -22z m269 4 c0 -2 -9 -6 -20 -9 -11 -3 -20 -1 -20 4 0 5 9 9 20 9 11 0
20 -2 20 -4z m-180 -26 c0 -5 -7 -10 -15 -10 -8 0 -15 5 -15 10 0 6 7 10 15
10 8 0 15 -4 15 -10z m440 -30 c0 -11 -2 -20 -4 -20 -2 0 -6 9 -9 20 -3 11 -1
20 4 20 5 0 9 -9 9 -20z m-60 -31 c0 -15 -22 -21 -31 -8 -14 22 -11 28 11 22
11 -3 20 -9 20 -14z m-45 -87 c-3 -3 3 -10 12 -17 9 -7 13 -17 9 -23 -13 -22
-25 -12 -32 24 -4 19 -13 38 -20 41 -8 3 -14 10 -14 16 0 6 11 0 25 -13 14
-13 23 -26 20 -28z m-109 -39 c-3 -8 -2 -11 4 -8 5 3 24 -4 42 -15 18 -11 42
-20 53 -20 41 -1 -11 -20 -59 -21 -66 -3 -100 34 -73 78 10 17 39 4 33 -14z
m249 -33 c3 -5 1 -10 -4 -10 -6 0 -11 5 -11 10 0 6 2 10 4 10 3 0 8 -4 11 -10z
m-85 -19 c0 -5 -6 -14 -14 -20 -12 -10 -13 -8 -9 8 5 21 23 30 23 12z m16 -48
c-10 -10 -19 5 -10 18 6 11 8 11 12 0 2 -7 1 -15 -2 -18z m-376 8 c0 -5 -7
-12 -16 -15 -14 -5 -15 -4 -4 9 14 17 20 19 20 6z m41 -5 c5 3 9 -2 9 -11 0
-9 5 -13 10 -10 6 3 10 1 10 -4 0 -6 -5 -11 -11 -11 -13 0 -39 30 -38 45 0 6
3 4 6 -3 2 -6 9 -10 14 -6z m220 -18 c-18 -19 -19 -54 -1 -43 9 6 25 -13 25
-30 0 -16 37 -18 47 -2 5 9 16 13 28 10 24 -6 25 -13 7 -37 -12 -16 -17 -17
-37 -6 -18 9 -25 10 -28 1 -2 -6 -12 -11 -23 -11 -13 0 -19 7 -19 23 -1 24
-21 65 -32 66 -5 1 -12 1 -18 1 -5 0 -10 9 -10 20 0 11 5 20 10 20 6 0 10 -5
10 -12 0 -6 9 -2 21 10 11 12 24 20 29 17 6 -3 1 -15 -9 -27z m-81 -18 c-8 -5
-21 -10 -29 -10 -11 0 -9 5 5 19 12 12 23 15 29 9 6 -6 5 -12 -5 -18z m-76 12
c3 -5 -1 -9 -9 -9 -8 0 -12 4 -9 9 3 4 7 8 9 8 2 0 6 -4 9 -8z m23 -36 c-4 -9
5 -19 24 -26 17 -8 29 -20 29 -31 0 -32 -33 -19 -54 22 -12 23 -11 49 1 49 3
0 3 -6 0 -14z m48 4 c-3 -5 -12 -10 -18 -10 -7 0 -6 4 3 10 19 12 23 12 15 0z
m56 -29 c16 -15 19 -26 14 -51 -7 -30 -6 -31 21 -24 24 6 26 5 21 -15 -3 -13
-1 -19 5 -14 7 3 8 1 4 -5 -15 -24 -44 -5 -78 49 -13 20 -14 29 -5 38 8 8 7
11 -6 11 -9 0 -17 7 -17 15 0 21 17 19 41 -4z m107 -76 c0 -26 -23 -35 -31
-12 -3 9 16 33 29 37 1 0 2 -11 2 -25z m-418 -70 c0 -8 -4 -15 -10 -15 -5 0
-10 7 -10 15 0 8 5 15 10 15 6 0 10 -7 10 -15z"/>
<path d="M506 1665 c-3 -8 -1 -15 4 -15 6 0 10 7 10 15 0 8 -2 15 -4 15 -2 0
-6 -7 -10 -15z"/>
<path d="M746 1672 c-4 -7 -12 -10 -17 -7 -5 4 -9 -1 -9 -10 0 -10 5 -13 12
-9 7 5 9 2 6 -8 -11 -26 7 -41 19 -16 11 26 2 70 -11 50z"/>
<path d="M160 1595 c7 -8 17 -15 22 -15 6 0 5 7 -2 15 -7 8 -17 15 -22 15 -6
0 -5 -7 2 -15z"/>
<path d="M929 1588 c-12 -23 -12 -23 10 -4 23 21 26 26 11 26 -5 0 -15 -10
-21 -22z"/>
<path d="M1025 1539 c-4 -6 -5 -12 -2 -15 2 -3 7 2 10 11 7 17 1 20 -8 4z"/>
<path d="M74 1496 c-3 -9 -10 -13 -15 -10 -5 3 -9 0 -9 -5 0 -17 27 -13 34 5
4 9 4 19 1 22 -2 3 -7 -3 -11 -12z"/>
<path d="M0 1438 c0 -24 3 -26 27 -19 15 4 29 14 31 22 5 12 3 12 -12 -1 -16
-13 -20 -12 -32 5 -13 18 -14 17 -14 -7z"/>
<path d="M12 1398 c-15 -15 -16 -38 -2 -38 7 0 7 -8 -1 -22 -9 -18 -9 -20 0
-12 10 9 25 84 17 84 -1 0 -7 -5 -14 -12z"/>
<path d="M711 1403 c0 -5 4 -17 9 -28 8 -18 9 -17 9 8 1 15 -3 27 -9 27 -5 0
-10 -3 -9 -7z"/>
<path d="M78 1373 c7 -3 16 -2 19 1 4 3 -2 6 -13 5 -11 0 -14 -3 -6 -6z"/>
<path d="M468 1307 c-11 -9 -14 -18 -8 -27 7 -12 10 -11 16 3 4 11 13 16 21
13 9 -4 13 -1 11 6 -6 17 -21 19 -40 5z"/>
<path d="M960 1310 c-9 -6 -10 -10 -3 -10 6 0 15 5 18 10 8 12 4 12 -15 0z"/>
<path d="M5 1300 c-3 -6 1 -7 9 -4 18 7 21 14 7 14 -6 0 -13 -4 -16 -10z"/>
<path d="M898 1299 c-16 -4 -28 -4 -28 -1 0 4 -4 1 -9 -7 -8 -13 -12 -13 -26
-1 -15 13 -17 12 -14 -5 3 -11 9 -20 14 -20 6 0 16 -4 23 -8 7 -5 14 -2 18 8
4 9 12 14 20 11 7 -3 18 2 25 10 16 19 10 23 -23 13z"/>
<path d="M1044 1281 c17 -19 17 -21 2 -27 -25 -10 -19 -22 8 -17 22 5 23 8 14
28 -6 13 -18 27 -26 30 -13 5 -12 1 2 -14z"/>
<path d="M1120 1250 c0 -5 5 -10 10 -10 6 0 10 5 10 10 0 6 -4 10 -10 10 -5 0
-10 -4 -10 -10z"/>
<path d="M3 1235 c0 -9 4 -14 9 -13 12 4 12 22 0 26 -5 1 -9 -4 -9 -13z"/>
<path d="M43 1225 c-7 -8 -9 -16 -4 -19 5 -3 12 1 15 10 8 22 4 25 -11 9z"/>
<path d="M206 1178 c5 -8 2 -9 -10 -5 -9 4 -15 3 -12 -2 3 -5 15 -11 26 -14
17 -4 18 -2 9 14 -5 10 -12 19 -15 19 -3 0 -2 -5 2 -12z"/>
<path d="M140 1149 c0 -5 5 -7 10 -4 6 3 10 8 10 11 0 2 -4 4 -10 4 -5 0 -10
-5 -10 -11z"/>
<path d="M0 1060 c0 -16 3 -30 8 -30 4 0 7 14 7 30 1 17 -3 30 -7 30 -4 0 -8
-13 -8 -30z"/>
<path d="M644 1069 c3 -13 5 -26 6 -29 1 -3 3 -11 4 -19 2 -23 24 -24 36 -2 7
14 7 21 0 22 -5 1 -14 3 -20 4 -5 1 -13 3 -16 4 -3 0 4 10 17 21 13 10 18 19
12 20 -7 0 -13 -5 -13 -11 0 -8 -5 -8 -15 1 -13 11 -15 9 -11 -11z"/>
<path d="M730 1070 c-14 -11 -20 -20 -13 -20 11 0 43 26 43 36 0 7 -4 5 -30
-16z"/>
<path d="M3025 879 c-11 -17 0 -20 21 -4 17 13 17 14 2 15 -9 0 -20 -5 -23
-11z"/>
<path d="M3057 863 c-4 -3 -7 -11 -7 -17 0 -6 5 -5 12 2 6 6 9 14 7 17 -3 3
-9 2 -12 -2z"/>
<path d="M16 847 c3 -10 9 -15 12 -12 3 3 0 11 -7 18 -10 9 -11 8 -5 -6z"/>
<path d="M700 836 c0 -9 5 -16 10 -16 6 0 10 4 10 9 0 6 -4 13 -10 16 -5 3
-10 -1 -10 -9z"/>
<path d="M680 773 c0 -16 4 -21 15 -17 9 4 15 0 15 -10 0 -9 -6 -13 -13 -10
-10 4 -12 -3 -9 -26 2 -17 6 -29 9 -26 3 2 3 6 1 8 -2 2 5 16 15 31 16 25 16
29 2 49 -10 15 -15 18 -15 8 0 -13 -2 -13 -10 0 -8 12 -10 11 -10 -7z"/>
<path d="M760 765 c-7 -9 -11 -18 -8 -20 3 -3 11 1 18 10 7 9 11 18 8 20 -3 3
-11 -1 -18 -10z"/>
<path d="M790 758 c-11 -12 -20 -29 -20 -37 0 -9 9 -2 21 16 12 18 25 30 30
27 5 -3 9 0 9 5 0 18 -18 13 -40 -11z"/>
<path d="M58 747 c-3 -19 -2 -25 4 -19 6 6 8 18 6 28 -3 14 -5 12 -10 -9z"/>
<path d="M753 688 c2 -19 -2 -23 -23 -20 -17 1 -21 -1 -12 -7 11 -6 10 -10 -4
-15 -17 -7 -44 15 -44 35 0 13 -32 19 -48 8 -16 -10 -15 -10 1 -5 21 7 23 -10
1 -18 -13 -5 -14 -9 -4 -20 8 -11 8 -20 1 -34 -6 -11 -8 -22 -4 -25 3 -4 0
-14 -8 -24 -12 -14 -12 -16 0 -8 11 6 13 4 8 -7 -4 -12 -1 -14 15 -10 18 4 19
3 9 -17 -7 -11 -16 -21 -21 -21 -6 0 -10 -7 -10 -16 0 -13 3 -14 14 -5 8 7 16
8 19 4 6 -9 -147 -173 -162 -173 -5 0 -11 -3 -14 -7 -2 -5 -3 -3 -1 4 3 14
-34 49 -43 40 -3 -4 -1 -7 5 -7 7 0 12 -4 12 -8 0 -5 -7 -9 -15 -9 -8 0 -12 4
-9 8 6 10 -24 39 -41 39 -8 0 -19 9 -25 20 -9 17 -14 18 -33 9 -21 -12 -21
-11 -4 8 17 19 16 20 -10 18 -42 -3 -106 -37 -91 -48 9 -5 6 -7 -7 -3 -11 3
-31 -1 -45 -9 -14 -8 -21 -14 -16 -15 5 0 -3 -11 -18 -24 -22 -19 -28 -33 -31
-76 -4 -49 -3 -52 18 -47 21 6 21 5 3 -8 -10 -7 -15 -18 -11 -24 4 -7 0 -8
-11 -4 -13 5 -15 3 -9 -7 6 -9 4 -11 -4 -5 -7 4 -11 18 -8 31 2 13 0 21 -4 18
-13 -8 -11 -48 3 -62 9 -9 8 -12 -4 -12 -9 0 -18 3 -21 8 -2 4 -2 2 -1 -5 2
-7 -1 -15 -6 -18 -6 -4 -10 -10 -10 -15 0 -10 71 12 128 39 23 12 56 24 72 28
17 3 30 9 30 13 0 5 13 11 30 15 16 4 46 18 66 31 49 34 197 104 218 104 16 0
16 1 1 16 -12 13 -13 19 -4 31 23 26 43 31 92 18 43 -11 67 -5 32 9 -28 10
-15 24 20 22 19 -2 35 0 35 5 0 4 3 14 6 23 4 10 1 16 -9 16 -8 0 -18 7 -21
16 -8 21 -8 21 7 36 10 11 9 16 -5 31 -14 13 -18 14 -18 3 0 -8 6 -17 13 -19
7 -4 6 -6 -4 -6 -24 -1 -42 25 -34 50 6 18 4 21 -11 15 -10 -4 -15 -4 -12 0 4
4 3 15 -2 24 -7 13 -6 20 6 24 8 3 17 -1 20 -9 4 -8 11 -12 17 -8 6 4 8 -2 5
-15 -7 -25 9 -33 39 -19 18 8 20 13 11 27 -7 10 -19 16 -27 13 -12 -3 -11 -2
2 7 9 6 20 9 25 7 4 -3 8 8 9 24 1 15 -2 31 -7 34 -6 4 -9 -4 -7 -17z m-18
-77 c3 -5 2 -12 -3 -15 -5 -3 -9 1 -9 9 0 17 3 19 12 6z m-436 -194 c-2 -1
-13 -9 -24 -17 -19 -14 -19 -14 -6 3 7 9 18 17 24 17 6 0 8 -1 6 -3z"/>
<path d="M1427 577 c-4 -10 2 -13 20 -9 18 3 21 7 11 13 -18 12 -25 11 -31 -4z"/>
<path d="M495 520 c-3 -5 -1 -10 4 -10 6 0 11 5 11 10 0 6 -2 10 -4 10 -3 0
-8 -4 -11 -10z"/>
<path d="M811 486 c-7 -8 -8 -17 -3 -20 6 -3 13 1 16 10 9 23 2 28 -13 10z"/>
<path d="M1300 459 c0 -5 5 -7 10 -4 6 3 10 8 10 11 0 2 -4 4 -10 4 -5 0 -10
-5 -10 -11z"/>
<path d="M1405 440 c-4 -6 -3 -16 3 -22 6 -6 12 -6 17 2 4 6 3 16 -3 22 -6 6
-12 6 -17 -2z"/>
<path d="M2685 360 c3 -5 8 -10 11 -10 2 0 4 5 4 10 0 6 -5 10 -11 10 -5 0 -7
-4 -4 -10z"/>
<path d="M1650 349 c0 -6 -8 -9 -19 -6 -16 4 -18 1 -12 -22 5 -18 3 -29 -7
-37 -8 -6 -12 -16 -8 -22 10 -17 26 -15 26 2 0 8 11 28 25 44 28 34 32 52 10
52 -8 0 -15 -5 -15 -11z"/>
<path d="M1483 336 c-25 -12 -32 -56 -9 -56 9 0 12 7 9 20 -6 22 7 26 24 9 7
-7 9 -3 6 15 -3 14 -6 25 -7 25 0 -1 -11 -6 -23 -13z"/>
<path d="M657 333 c-4 -3 -7 -13 -7 -22 1 -13 3 -13 11 2 11 19 8 33 -4 20z"/>
<path d="M2695 320 c3 -5 13 -10 21 -10 8 0 12 5 9 10 -3 6 -13 10 -21 10 -8
0 -12 -4 -9 -10z"/>
<path d="M1585 300 c-3 -5 1 -10 9 -10 9 0 16 5 16 10 0 6 -4 10 -9 10 -6 0
-13 -4 -16 -10z"/>
<path d="M3445 270 c-16 -23 -82 -92 -147 -155 l-119 -115 151 0 150 0 0 155
c0 85 -2 155 -4 155 -2 0 -16 -18 -31 -40z"/>
<path d="M1548 283 c7 -3 16 -2 19 1 4 3 -2 6 -13 5 -11 0 -14 -3 -6 -6z"/>
<path d="M593 255 c-7 -8 -13 -20 -13 -26 0 -7 -3 -9 -6 -6 -4 3 -16 1 -28 -5
-11 -6 -38 -10 -60 -10 -38 2 -39 1 -24 -15 14 -14 22 -15 43 -5 32 15 48 15
40 2 -3 -5 1 -10 9 -10 21 0 20 -16 -1 -24 -9 -4 -20 -1 -25 6 -6 10 -11 8
-20 -7 -13 -21 -14 -25 -16 -62 -2 -25 -55 -58 -78 -49 -8 3 -14 1 -14 -5 0
-6 -7 -9 -15 -5 -8 3 -15 1 -15 -5 0 -5 -10 -14 -22 -19 -20 -8 -18 -9 14 -9
25 -1 41 5 48 17 11 16 11 16 6 0 -3 -10 -2 -18 3 -18 13 0 32 26 24 33 -3 4
-4 7 0 7 3 0 13 -7 22 -16 15 -15 18 -15 31 -2 9 8 16 21 18 29 5 36 33 77 70
104 43 32 52 51 42 91 -7 27 -15 30 -33 9z m17 -56 c0 -5 -4 -9 -10 -9 -5 0
-10 7 -10 16 0 8 5 12 10 9 6 -3 10 -10 10 -16z"/>
<path d="M1540 260 c0 -5 4 -10 9 -10 5 0 18 -3 28 -6 16 -5 16 -4 -1 10 -23
18 -36 20 -36 6z"/>
<path d="M650 245 c-1 -5 -4 -19 -7 -30 -2 -11 -7 -32 -10 -47 -3 -14 -24 -46
-46 -70 -23 -24 -52 -56 -64 -71 l-23 -27 88 0 c87 0 89 1 126 35 47 42 40 59
-20 50 -24 -3 -44 -4 -44 0 0 3 10 19 22 36 20 26 21 32 8 52 -7 12 -17 36
-21 52 -4 17 -8 26 -9 20z"/>
<path d="M1600 236 c0 -2 8 -10 18 -17 15 -13 16 -12 3 4 -13 16 -21 21 -21
13z"/>
<path d="M1570 206 c0 -9 5 -16 10 -16 6 0 10 4 10 9 0 6 -4 13 -10 16 -5 3
-10 -1 -10 -9z"/>
<path d="M1230 190 c0 -5 -6 -7 -12 -5 -16 6 -71 -61 -65 -78 3 -7 6 -5 6 4 1
9 9 19 19 23 48 16 95 66 62 66 -5 0 -10 -4 -10 -10z"/>
<path d="M1298 173 c7 -3 16 -2 19 1 4 3 -2 6 -13 5 -11 0 -14 -3 -6 -6z"/>
<path d="M1471 163 c7 -10 15 -20 16 -22 2 -2 3 5 3 17 0 14 -6 22 -16 22 -14
0 -15 -3 -3 -17z"/>
<path d="M452 161 c-11 -7 -11 -9 1 -14 16 -6 27 0 27 15 0 10 -11 10 -28 -1z"/>
<path d="M389 141 c7 -13 5 -22 -10 -34 -10 -9 -25 -17 -31 -17 -9 0 -9 -3 0
-12 10 -10 17 -7 36 13 34 37 41 64 16 66 -16 1 -18 -2 -11 -16z"/>
<path d="M343 135 c0 -8 4 -12 9 -9 4 3 8 9 8 15 0 5 -4 9 -8 9 -5 0 -9 -7 -9
-15z"/>
<path d="M1200 125 c-17 -45 -14 -56 15 -43 19 8 22 15 15 28 -5 10 -7 20 -4
23 3 3 1 8 -5 12 -6 3 -15 -5 -21 -20z"/>
<path d="M1575 80 c3 -5 10 -10 16 -10 5 0 9 5 9 10 0 6 -7 10 -16 10 -8 0
-12 -4 -9 -10z"/>
</g>
</svg>
