<?xml version="1.0" standalone="no"?>
<!DOCTYPE svg PUBLIC "-//W3C//DTD SVG 20010904//EN"
 "http://www.w3.org/TR/2001/REC-SVG-20010904/DTD/svg10.dtd">
<svg version="1.0" xmlns="http://www.w3.org/2000/svg"
 width="1280.000000pt" height="731.000000pt" viewBox="0 0 1280.000000 731.000000"
 preserveAspectRatio="xMidYMid meet">
<metadata>
Created by potrace 1.15, written by Peter Selinger 2001-2017
</metadata>
<g transform="translate(0.000000,731.000000) scale(0.100000,-0.100000)"
fill="#000000" stroke="none">
<path d="M7125 7304 c-16 -3 -97 -18 -180 -34 -158 -31 -315 -52 -530 -71 -79
-7 -533 -14 -1165 -19 l-1035 -7 -105 -25 c-58 -15 -161 -45 -230 -68 -69 -23
-233 -73 -365 -110 -324 -93 -510 -158 -668 -233 -631 -301 -1118 -750 -1387
-1277 l-61 -121 -60 65 c-82 89 -144 118 -264 124 -155 7 -267 -35 -355 -135
-113 -129 -131 -301 -43 -429 23 -35 24 -39 8 -50 -22 -17 -155 -51 -240 -63
-38 -5 -144 -13 -235 -17 -91 -4 -173 -10 -182 -13 -12 -4 17 -30 109 -96 164
-117 219 -148 323 -182 75 -25 99 -28 205 -27 102 1 133 5 205 29 77 24 238
99 315 145 22 13 40 16 69 12 l38 -7 -1 -136 c-2 -156 14 -278 57 -421 l29
-97 -14 -188 c-24 -346 -63 -574 -134 -787 -53 -161 -108 -270 -235 -466 -194
-301 -250 -431 -298 -692 -44 -235 -58 -374 -63 -623 l-6 -241 101 -105 c56
-58 135 -129 177 -158 201 -139 448 -211 727 -211 l98 0 -6 77 c-11 147 -42
209 -181 355 -133 139 -147 160 -138 205 9 51 47 115 87 145 74 56 154 88 413
163 456 132 647 211 816 337 l79 58 31 -43 c58 -80 119 -184 145 -248 72 -175
176 -611 200 -835 3 -34 9 -66 13 -71 3 -6 40 -25 81 -43 116 -50 397 -193
496 -251 174 -103 295 -190 457 -332 50 -43 62 -49 138 -63 124 -22 336 -29
459 -15 92 11 410 68 418 75 1 2 -68 56 -155 121 -337 253 -549 505 -683 813
-21 48 -61 128 -88 176 -58 100 -67 143 -59 257 5 67 44 211 65 247 6 8 50 3
168 -18 418 -75 682 -100 1137 -107 368 -6 637 4 901 32 74 7 125 9 131 3 6
-5 10 -74 10 -166 0 -187 -19 -273 -91 -420 -71 -145 -199 -270 -361 -350
-105 -53 -257 -252 -323 -424 -47 -122 -48 -118 45 -147 73 -23 97 -25 265
-25 198 -1 256 7 501 65 l129 31 102 81 c126 98 309 276 390 376 94 117 186
260 303 471 59 107 143 259 185 336 43 78 105 183 138 235 l60 92 40 -79 c82
-162 201 -303 352 -416 106 -80 244 -159 544 -315 352 -182 457 -252 909 -601
130 -101 252 -188 270 -193 17 -6 84 -13 147 -16 113 -6 194 4 312 37 l37 11
-20 52 c-82 210 -119 259 -434 572 -151 150 -288 295 -308 326 -50 77 -234
447 -297 599 -52 123 -130 343 -130 366 0 7 24 15 63 19 98 11 323 53 425 80
212 56 457 171 792 371 436 260 431 258 780 364 129 39 273 87 319 107 98 40
201 105 250 156 28 30 33 41 28 66 l-6 31 52 0 c28 -1 70 -7 92 -15 51 -19
104 -19 183 0 221 52 334 211 374 528 19 153 17 530 -5 643 -37 199 -120 365
-207 412 -37 19 -56 23 -111 20 -65 -3 -69 -5 -130 -59 -158 -137 -286 -200
-421 -207 -80 -4 -93 -2 -142 22 -77 38 -153 124 -214 243 -66 130 -79 178
-92 367 -17 237 -46 334 -129 427 -36 42 -39 48 -25 60 19 16 63 79 97 140 39
72 92 222 122 349 15 63 46 194 70 290 24 96 42 176 41 178 -2 1 -63 -27 -137
-63 -192 -93 -261 -112 -579 -159 -96 -15 -188 -29 -205 -32 -28 -5 -33 -1
-82 78 -85 136 -132 267 -174 486 -6 34 -12 62 -14 62 -1 0 -46 -44 -101 -97
-89 -88 -115 -107 -252 -182 -236 -128 -302 -188 -338 -301 -9 -30 -20 -58
-23 -62 -9 -11 -267 28 -391 58 -184 46 -322 109 -705 327 -338 192 -523 276
-850 385 -216 72 -364 103 -510 107 -66 2 -133 1 -150 -1z m297 -109 c194 -34
571 -163 815 -280 72 -34 234 -121 360 -193 527 -300 626 -334 1163 -402 173
-22 339 -46 369 -53 l54 -12 -59 -41 c-80 -57 -170 -153 -195 -209 -11 -26
-23 -71 -26 -101 -5 -44 -3 -55 11 -60 22 -8 45 13 114 104 60 80 140 149 274
236 170 111 282 145 633 196 234 34 380 67 485 110 38 16 70 27 70 24 0 -2
-18 -84 -41 -181 -60 -259 -102 -371 -181 -484 -44 -64 -85 -95 -209 -162 -94
-51 -125 -78 -115 -102 18 -47 123 -42 228 11 68 34 71 35 90 17 27 -24 62
-96 77 -157 6 -26 18 -128 26 -225 15 -192 29 -249 92 -375 176 -351 427 -427
762 -231 46 27 65 34 75 26 24 -20 64 -106 104 -221 56 -163 75 -257 76 -382
1 -59 4 -108 7 -108 12 0 39 37 61 85 32 71 30 213 -5 345 -20 76 -96 296
-132 382 -5 12 2 21 26 33 27 14 39 15 70 6 45 -14 77 -52 118 -142 58 -129
80 -268 81 -499 0 -264 -26 -465 -75 -577 -68 -153 -227 -229 -391 -188 -100
25 -199 15 -447 -45 -310 -75 -369 -84 -517 -75 -224 12 -234 12 -238 -8 -4
-22 79 -62 164 -79 100 -19 327 -14 414 11 186 52 259 69 315 75 l60 6 -40
-36 c-56 -50 -175 -105 -345 -158 -80 -24 -210 -65 -290 -90 -182 -57 -269
-99 -561 -274 -586 -350 -762 -419 -1244 -486 -686 -96 -660 -91 -1060 -210
-121 -37 -228 -69 -239 -72 -11 -4 13 35 61 97 88 115 207 289 197 289 -3 0
-41 -24 -83 -54 -191 -135 -343 -296 -496 -526 -79 -119 -113 -178 -341 -595
-215 -395 -356 -568 -662 -817 -94 -76 -97 -77 -202 -102 -124 -29 -323 -66
-357 -66 -20 0 -22 2 -12 27 16 41 13 152 -6 202 -16 46 -55 105 -89 132 -23
19 -36 8 113 95 246 144 389 371 431 681 19 139 9 250 -44 463 -58 233 -70
352 -63 590 13 429 92 678 297 947 110 144 131 176 128 197 -2 15 -12 22 -32
24 -24 3 -39 -7 -90 -60 -34 -35 -90 -106 -125 -158 -157 -236 -247 -484 -282
-784 -17 -144 -6 -506 20 -676 12 -74 21 -136 21 -137 0 -6 -82 -15 -260 -27
-656 -47 -1233 -19 -1814 86 l-118 22 6 46 c3 25 13 95 21 155 22 147 32 634
16 787 -24 235 -72 474 -158 788 -52 191 -76 262 -99 298 -16 25 -17 25 -31 6
-22 -29 -9 -137 42 -359 55 -242 80 -367 105 -534 72 -489 43 -919 -86 -1281
-19 -52 -41 -130 -49 -174 -30 -156 -15 -248 59 -377 25 -43 66 -124 90 -179
75 -168 203 -369 312 -490 20 -22 35 -42 33 -44 -2 -1 -25 -13 -50 -24 -102
-49 -174 -143 -186 -243 l-6 -51 -49 5 c-43 6 -58 14 -121 73 -168 156 -383
292 -732 465 l-241 119 -11 87 c-35 255 -137 657 -208 816 -57 130 -135 239
-888 1236 -260 343 -482 688 -602 936 -164 336 -215 625 -159 903 l7 32 -44 0
c-64 0 -232 27 -319 51 -97 26 -189 72 -245 121 -114 101 -115 259 -2 376 72
75 104 86 238 87 111 0 117 -1 164 -30 41 -25 115 -112 115 -134 0 -4 -45 -29
-100 -56 l-99 -49 -23 21 c-35 33 -71 43 -112 32 -45 -13 -78 -53 -74 -93 8
-85 216 -88 379 -5 101 51 166 126 249 290 258 508 694 921 1289 1218 202 102
389 169 726 261 83 22 225 65 316 95 217 71 308 92 454 105 73 6 463 9 1000 7
898 -2 999 1 1335 39 74 8 200 28 280 44 80 16 156 31 170 33 61 10 235 6 312
-8z m3019 -505 c17 -47 51 -120 76 -164 24 -43 41 -82 36 -86 -4 -4 -26 -13
-48 -20 -22 -7 -68 -27 -102 -46 -62 -33 -63 -33 -105 -18 -57 20 -251 68
-360 90 -53 10 -88 22 -88 29 0 7 13 30 29 52 33 46 125 108 291 198 61 33
134 78 163 101 l52 41 13 -46 c7 -25 26 -84 43 -131z m-9588 -1874 c34 -24 86
-55 115 -70 28 -14 52 -29 52 -32 0 -8 -119 -59 -186 -80 -43 -13 -90 -18
-179 -18 -105 0 -129 3 -187 26 -37 14 -93 41 -124 59 l-55 34 138 17 c141 17
275 53 329 89 16 10 30 19 32 19 2 0 31 -20 65 -44z m735 -1221 c258 -431 572
-887 979 -1422 l154 -203 -60 -44 c-154 -113 -339 -187 -844 -336 -375 -110
-489 -197 -512 -390 -6 -53 -5 -57 34 -113 23 -32 41 -59 41 -61 0 -2 -19 -8
-42 -14 -91 -23 -177 -101 -215 -195 -8 -20 -20 -37 -27 -37 -17 0 -164 96
-222 147 -29 24 -74 69 -99 99 l-47 55 1 172 c1 201 13 334 47 546 51 314 99
437 272 703 115 178 164 263 214 373 79 177 144 436 173 699 25 227 26 233 37
216 5 -8 57 -96 116 -195z m7786 -1638 c80 -253 326 -769 436 -915 33 -45 139
-156 235 -248 l174 -167 -42 -27 c-67 -42 -125 -116 -145 -182 -9 -32 -20 -58
-23 -58 -4 0 -60 41 -125 92 -426 329 -584 433 -914 598 -353 177 -508 277
-645 415 -85 86 -195 242 -199 281 -1 20 97 64 289 130 212 73 467 136 725
178 217 35 188 47 234 -97z"/>
<path d="M8168 5308 c-87 -87 -178 -198 -240 -294 -86 -134 -171 -349 -209
-530 -41 -198 -41 -505 0 -744 72 -416 315 -793 690 -1070 83 -61 282 -182
289 -175 3 2 -41 52 -97 111 -602 631 -839 1107 -792 1596 31 320 152 652 390
1068 39 68 69 125 67 127 -2 3 -46 -38 -98 -89z"/>
<path d="M10944 4856 c-80 -35 -124 -129 -132 -277 -7 -148 26 -255 102 -328
27 -27 45 -35 85 -39 141 -13 254 141 238 326 -16 198 -175 371 -293 318z"/>
<path d="M10255 4760 c-8 -13 8 -40 56 -96 70 -81 219 -314 280 -439 130 -268
162 -456 124 -750 -41 -312 -120 -497 -279 -655 -36 -35 -63 -66 -61 -68 8 -8
185 91 250 141 130 99 230 244 270 392 22 82 30 270 16 379 -37 276 -200 706
-328 866 -74 92 -181 193 -233 220 -42 21 -85 26 -95 10z"/>
</g>
</svg>
